<?xml version="1.0" encoding="UTF-8" standalone="no"?>
<svg
   xmlns:dc="http://purl.org/dc/elements/1.1/"
   xmlns:cc="http://creativecommons.org/ns#"
   xmlns:rdf="http://www.w3.org/1999/02/22-rdf-syntax-ns#"
   xmlns:svg="http://www.w3.org/2000/svg"
   xmlns="http://www.w3.org/2000/svg"
   xmlns:sodipodi="http://sodipodi.sourceforge.net/DTD/sodipodi-0.dtd"
   xmlns:inkscape="http://www.inkscape.org/namespaces/inkscape"
   version="1.1"
   id="svg2"
   xml:space="preserve"
   width="4266.6665"
   height="2666.6667"
   viewBox="0 0 4266.6665 2666.6667"
   sodipodi:docname="7511.svg"
   inkscape:version="1.0.1 (3bc2e813f5, 2020-09-07)"><metadata
     id="metadata8"><rdf:RDF><cc:Work
         rdf:about=""><dc:format>image/svg+xml</dc:format><dc:type
           rdf:resource="http://purl.org/dc/dcmitype/StillImage" /></cc:Work></rdf:RDF></metadata><defs
     id="defs6" /><sodipodi:namedview
     pagecolor="#ffffff"
     bordercolor="#666666"
     borderopacity="1"
     objecttolerance="10"
     gridtolerance="10"
     guidetolerance="10"
     inkscape:pageopacity="0"
     inkscape:pageshadow="2"
     inkscape:window-width="2400"
     inkscape:window-height="1284"
     id="namedview4"
     inkscape:document-rotation="0"
     showgrid="false"
     inkscape:zoom="0.1948963"
     inkscape:cx="104.39321"
     inkscape:cy="1190.0315"
     inkscape:window-x="2391"
     inkscape:window-y="29"
     inkscape:window-maximized="1"
     inkscape:current-layer="g12" /><g
     id="g10"
     inkscape:groupmode="layer"
     inkscape:label="ink_ext_XXXXXX"
     transform="matrix(1.3333333,0,0,-1.3333333,0,2666.6667)"><g
       id="g12"
       transform="scale(0.1)"><path
         d="m 22677,13787.7 c 0,0 116.6,-192.1 -102.5,-313 0,0 168.4,-60.8 227.1,-37.9 0,0 -14.6,-15.1 -25.6,-20.6 0,0 158.3,-50.3 237.2,-22.9 78.9,27.5 248.8,794 -218.4,834.4 0,0 -368.6,132 -446.5,-279.3 -78,-411.3 -219.9,-371.4 -219.9,-371.4 0,0 34.4,-29.1 53.5,-34.4 0,0 30.6,1.9 40.1,14.6 0,0 -11.8,-20.8 -21,-25.9 0,0 149.5,-56.5 241,-24.6 91.5,31.8 233.6,192 235,281"
         style="fill:#163560;fill-opacity:1;fill-rule:nonzero;stroke:none"
         id="path16" /><path
         d="m 22207.9,7736.5 h 596.2 c 0,0 14.3,90.8 -16.9,159.7 -29.8,66.2 -76.2,107 -80.5,157.7 -37.9,-39 -84.5,-64.1 -170.7,-52.5 -10.5,-17.1 -68.1,-108.7 -103.4,-134.1 -38.9,-28 -212.7,-18 -224.7,-130.8"
         style="fill:#233862;fill-opacity:1;fill-rule:nonzero;stroke:none"
         id="path18" /><path
         d="m 22700.5,7964.2 c 0,0 -50.8,-16.5 -103.9,-21.2 -93.9,-8.4 -107.6,19.6 -107.6,19.6 0,0 -93.3,830.6 -395.3,2418.4 -43.6,229.3 -60.8,356.2 -76.6,560 -4.7,61.1 -9.3,128.9 -14.3,208.6 -13.7,214 18.8,574.1 179.4,668.8 73,43.1 172.5,31.2 306.2,-74.1 10.5,-8.3 21.3,-17.2 32.3,-26.7 391.4,-338.6 230.9,-1310.9 246.7,-1768 2.7,-75.8 10.2,-137.4 25.8,-179.6 20.2,-54.6 63.5,-130.4 73.4,-201.7 82.1,-592.9 -166.1,-1604.1 -166.1,-1604.1"
         style="fill:#f99746;fill-opacity:1;fill-rule:nonzero;stroke:none"
         id="path20" /><path
         d="m 22715.6,7736.5 h 596.1 c 0,0 14.3,90.8 -16.8,159.7 -29.9,66.2 -76.3,107 -80.5,157.7 -37.9,-39 -84.5,-64.1 -170.7,-52.5 -10.6,-17.1 -68.2,-108.7 -103.4,-134.1 -39,-28 -212.7,-18 -224.7,-130.8"
         style="fill:#233862;fill-opacity:1;fill-rule:nonzero;stroke:none"
         id="path22" /><path
         d="m 23208.2,7964.2 c 0,0 -50.9,-16.5 -103.9,-21.2 -93.9,-8.4 -107.6,19.6 -107.6,19.6 0,0 -93.3,830.6 -395.4,2418.4 -43.6,229.3 -60.8,356.2 -76.5,560 -4.7,61.1 -9.3,128.9 -14.3,208.6 -13.7,214 18.7,574.1 179.3,668.8 73,43.1 172.5,31.2 306.3,-74.1 10.5,-8.3 21.3,-17.2 32.2,-26.7 391.4,-338.6 231,-1310.9 246.8,-1768 2.6,-75.8 10.1,-137.4 25.7,-179.6 20.2,-54.6 63.6,-130.4 73.4,-201.7 82.2,-592.9 -166,-1604.1 -166,-1604.1"
         style="fill:#f99746;fill-opacity:1;fill-rule:nonzero;stroke:none"
         id="path24" /><path
         d="m 21506,14627.2 c 0,0 14.4,71.6 30.5,126.3 7.2,24.2 -42.7,183.1 -77.2,202.7 -34.6,19.5 -124.5,-87.5 -99.1,-169.7 13.1,-42.2 34.6,-179.6 34.6,-179.6 l 111.2,20.3"
         style="fill:#ffb27d;fill-opacity:1;fill-rule:nonzero;stroke:none"
         id="path26" /><path
         d="m 23986.1,14419.4 c 3.7,-7.6 11.1,-40.1 15.7,-52.8 0,3.5 91.8,158.7 130.5,167.3 38.7,8.6 93.4,-120.1 45,-191.2 -24.8,-36.6 -110,-149 -110,-149 l -90.5,37.7 c 0,0 8.7,46.8 -5.5,58.2 -14.2,11.4 -11.7,121.1 -15.8,150.5 0,0 17.1,7.1 30.6,-20.7"
         style="fill:#ffb27d;fill-opacity:1;fill-rule:nonzero;stroke:none"
         id="path28" /><path
         d="m 22393.7,13296 c -1.3,-0.4 107.3,-79 199.4,-68 86.7,10.4 157.2,110.2 156,110.6 -34.2,12.3 -37.1,62.3 -5.4,270.4 l -16.4,-0.8 -276,-13.2 c 0,0 -6.4,-85.3 -18,-164.8 -9.8,-66.7 -23.3,-129.4 -39.6,-134.2"
         style="fill:#ffb27d;fill-opacity:1;fill-rule:nonzero;stroke:none"
         id="path30" /><path
         d="m 22451.3,13595 c 0,0 -6.4,-85.3 -18,-164.8 150.6,-18 250.2,107 294,178 l -276,-13.2"
         style="fill:#ed975d;fill-opacity:1;fill-rule:nonzero;stroke:none"
         id="path32" /><path
         d="m 22759.3,13633.3 c 0,0 97.1,112.5 131.7,215.9 24.8,73.8 28,360.6 -260.5,362.1 0,0 -83.2,4.1 -168,-36.5 -67.5,-32.3 -169.3,-108.5 -106.8,-368.5 l 13.3,-86.7 390.3,-86.3"
         style="fill:#163560;fill-opacity:1;fill-rule:nonzero;stroke:none"
         id="path34" /><path
         d="m 22047.6,11652 c 0,0 270.7,-170.8 721.5,-61.1 5.3,1.3 256.3,41.3 256.3,41.3 -6.3,17.2 -270.1,453.1 -276.2,468.9 -80,206.4 105.2,1191.8 -16.9,1247 -31.2,-33.9 -120.3,-57.2 -196.6,-50.4 -87.9,7.7 -117.3,45.7 -110,86.5 -97.2,-45.9 -171.9,-88.7 -171.9,-88.7 -88.8,-133.1 -206.2,-1643.5 -206.2,-1643.5"
         style="fill:#ffb27d;fill-opacity:1;fill-rule:nonzero;stroke:none"
         id="path36" /><path
         d="m 22390.1,13527.2 c 0,0 354,-58.6 387.1,162.4 33.1,221 101.1,362.3 -123.5,409.1 -224.6,46.7 -281.3,-31 -310.3,-102.1 -29,-71 -44.6,-448.4 46.7,-469.4"
         style="fill:#ffb27d;fill-opacity:1;fill-rule:nonzero;stroke:none"
         id="path38" /><path
         d="m 22492.9,14128.1 c 0,0 58.6,-273.8 202,-334.3 143.4,-60.5 214,-30.2 214,-30.2 0,0 -100.9,107.9 -101,270 0,0 -223.4,207.1 -315,94.5"
         style="fill:#163560;fill-opacity:1;fill-rule:nonzero;stroke:none"
         id="path40" /><path
         d="m 22513.8,14103.5 c 0,0 -81.2,-47.1 -107.2,-100.8 -26.1,-53.6 -51.3,-168.3 -84.5,-159.4 0,0 -47,187.2 50.1,274.7 103,92.7 141.6,-14.5 141.6,-14.5"
         style="fill:#163560;fill-opacity:1;fill-rule:nonzero;stroke:none"
         id="path42" /><path
         d="m 24068.7,14181.1 c 0,0 -228.2,-693.9 -289,-801.2 -36.6,-64.8 -447.8,-320.8 -686.5,-489.6 -2.6,-1.8 -5.7,-5.5 -9.2,-10.9 -0.1,-0.2 -0.1,-0.2 -0.2,-0.4 -59.6,-92.1 -244.8,-662.3 -200.6,-764.6 186.2,-430.2 330.1,-584.4 376.5,-705.1 23.2,-60.2 54.2,-124.1 -6.6,-145.7 -76.5,-27.3 -267.4,-77.2 -400.3,-100 -25.4,-4.3 -51.5,-8.3 -78.2,-11.7 -366.9,-46.5 -615.3,39.6 -741.4,103.2 -59.6,30.1 -95.6,92.7 -91.9,159.4 7.6,136.1 75.6,270.8 106.3,598 23.3,248.4 -191,626.3 -181.9,758.4 3.5,52.3 44.7,114.9 66.9,155.4 0,0 0,0 0.1,0.1 39.3,71.7 61,136.5 34.8,172.5 -174.6,239.7 -551.6,570.1 -567,652.6 -22.5,121.2 -12.4,870.6 -12.4,870.6 14.4,5 35.6,17.1 63.3,19.5 24.7,2.2 55.6,-5.8 55.6,-5.8 0,0 99.9,-620.9 107.3,-653.7 7.5,-32.9 428.4,-507.2 541.9,-505.3 102.5,1.8 247,-77.4 269.5,-92.6 0,0 -92,-163.1 -114.9,-383.2 -16.1,-154 86.8,-85.6 151.4,19.9 87.5,142.8 263.6,346.1 263.6,346.1 0,0 143.2,37.3 250,-1.5 106.7,-38.6 658.9,273.2 676.6,301.9 17.7,28.7 313.5,579.8 313.5,579.8 0,0 24.5,14.2 63.8,-6.3 38.8,-20.2 39,-59.8 39,-59.8"
         style="fill:#f8fcff;fill-opacity:1;fill-rule:nonzero;stroke:none"
         id="path44" /><path
         d="m 22492.9,13647.2 c 0,0 -15.2,-30.5 -35.5,-31.1 -20.4,-0.5 -72.1,4.3 -75.7,9.6 -3.5,5.3 -12.1,37.2 -12.1,37.2 0,0 85.6,3.5 123.3,-15.7"
         style="fill:#ffffff;fill-opacity:1;fill-rule:nonzero;stroke:none"
         id="path46" /><path
         d="m 25847.6,16980.9 -379.4,-2760.9 -3711.4,539.9 -0.1,0.1 -1563.8,227.4 379.4,2760.8 2919.9,-424.7 2355.4,-342.6"
         style="fill:#9400d3;fill-opacity:1;fill-rule:nonzero;stroke:none"
         id="path48" /><path
         d="m 25179.3,14845.2 222.1,1616.5 c 15.1,109.7 -62.4,211.7 -173,227.8 l -4205.6,611.8 c -112.6,16.4 -216.4,-60.9 -231.7,-172.6 l -221.3,-1610 c -15.2,-110.8 63,-213.7 174.7,-229.9 l 4208.3,-612.3 c 110.1,-16 211.5,59.5 226.5,168.7 z m 324.3,1870.9 -294.6,-2143.4 -4741.5,689.7 294.5,2143.4 4741.6,-689.7"
         style="fill:#b7d1f7;fill-opacity:1;fill-rule:nonzero;stroke:none"
         id="path50" /><path
         d="m 22906.3,15412.5 c -321.2,46.8 -546,342.8 -502.3,661.3 43.8,318.5 339.6,538.8 660.7,492.1 321.2,-46.7 546.1,-342.8 502.3,-661.3 -43.8,-318.5 -339.6,-538.8 -660.7,-492.1"
         style="fill:#b7d1f7;fill-opacity:1;fill-rule:nonzero;stroke:none"
         id="path52" /><path
         d="m 18701.6,8621 -2667.4,1125.8 c -187.4,79.1 -275.2,295.1 -196.1,482.5 l 1822.8,4319 c 79.1,187.4 295.2,275.2 482.6,196.1 l 2667.3,-1125.8 c 187.5,-79.1 275.3,-295.1 196.2,-482.6 L 19184.2,8817.1 c -79.1,-187.4 -295.2,-275.2 -482.6,-196.1"
         style="fill:#f8fcff;fill-opacity:1;fill-rule:nonzero;stroke:none"
         id="path54" /><path
         d="m 18767,11540 -563.2,-370.9 -122.8,663.2 558.6,364.7 127.4,-657"
         style="fill:#f77d48;fill-opacity:1;fill-rule:nonzero;stroke:none"
         id="path56" /><path
         d="m 18001.4,13559.2 -318.8,-209.9 -69.5,375.4 316.2,206.5 72.1,-372"
         style="fill:#f77d48;fill-opacity:1;fill-rule:nonzero;stroke:none"
         id="path58" /><path
         d="m 17979.7,14223.5 122.5,-51.7 12.8,201.3 z m 118.1,-119.6 -163.8,69.1 -75.8,-84 -76.4,32.3 338.2,355.4 66,-27.8 -18.5,-490.4 -76.7,32.3 7,113.1"
         style="fill:#f77d48;fill-opacity:1;fill-rule:nonzero;stroke:none"
         id="path60" /><path
         d="m 18802.1,9721.9 318.8,209.9 69.4,-375.4 -316.1,-206.5 -72.1,372"
         style="fill:#f77d48;fill-opacity:1;fill-rule:nonzero;stroke:none"
         id="path62" /><path
         d="m 18823.8,9057.6 -122.5,51.7 -12.8,-201.3 z m -118.1,119.7 163.8,-69.2 75.8,84 76.4,-32.2 -338.2,-355.5 -66,27.9 18.5,490.3 76.7,-32.3 -7,-113"
         style="fill:#f77d48;fill-opacity:1;fill-rule:nonzero;stroke:none"
         id="path64" /><path
         d="m 16165.2,7839.5 c 454.7,2336.7 2717.5,3862.4 5054.3,3407.8 C 23556.2,10792.6 25081.9,8529.7 24627.2,6193 24172.6,3856.3 21909.7,2330.6 19573,2785.2 17236.2,3239.9 15710.5,5502.8 16165.2,7839.5"
         style="fill:#233862;fill-opacity:1;fill-rule:nonzero;stroke:none"
         id="path66" /><path
         d="m 24435.6,6230.3 c -434.1,-2231 -2594.4,-3687.5 -4825.3,-3253.4 -2231,434.1 -3687.5,2594.3 -3253.4,4825.3 214.8,1104.3 852.6,2018.8 1712.5,2608.2 460.9,316 985.7,538.5 1543.5,646.8 503.8,97.9 1034.5,102.4 1569.3,-1.6 535.1,-104.1 1025.8,-307.6 1456.3,-587.5 1364.7,-887 2127,-2542 1797.1,-4237.8"
         style="fill:#ebf3fa;fill-opacity:1;fill-rule:nonzero;stroke:none"
         id="path68" /><path
         d="m 24276.3,6261.3 c -417,-2143 -2492.1,-3542.1 -4635.1,-3125.1 l -8.1,1.5 c -3.7,0.8 -7.5,1.5 -11.1,2.3 -515.3,102.9 -987,301.7 -1400.6,574.2 -0.3,0.1 -0.4,0.3 -0.7,0.5 -443.6,292.5 -820,669.8 -1110.6,1104.7 -559.5,836.6 -801.4,1885.8 -594,2951.8 206.5,1061.3 819.7,1940.2 1646.4,2506.2 441.5,302.5 943.8,515.7 1477.7,619.8 l 1.2,0.2 c 484.7,94.5 995.3,99.1 1509.8,-1.1 l 1.1,-0.2 c 514.1,-100.2 985.4,-295.7 1399.1,-564.8 2,-1.3 4,-2.6 5.9,-4.1 446.1,-291.3 825.1,-668.4 1117.9,-1103.4 564.5,-838.3 809.4,-1892 601.1,-2962.5"
         style="fill:#ffffff;fill-opacity:1;fill-rule:nonzero;stroke:none"
         id="path70" /><path
         d="m 20700.4,5436.3 7,6.1 456.8,430.1 1456.4,-2123.9 c -441.4,-302.5 -953,-512.7 -1486.8,-616.9 l -4,11.6 -429.4,2293"
         style="fill:#9ad88b;fill-opacity:1;fill-rule:nonzero;stroke:none"
         id="path72" /><path
         d="M 22557.3,10327.2 C 22264,9856.6 21775.9,9076.5 21337.7,8390.3 20821.5,7582 20374.4,6904.2 20396.2,7016.2 l 755,3880.1 1.1,-0.2 c 514.1,-100.2 985.4,-295.7 1399.1,-564.8 2,-1.3 4,-2.6 5.9,-4.1"
         style="fill:#f77d48;fill-opacity:1;fill-rule:nonzero;stroke:none"
         id="path74" /><path
         d="m 20074,8599.7 -7.1,-6.1 -462.7,-402.7 -1441.7,2086.5 c 441.5,302.5 943.8,515.7 1477.7,619.8 l 1.2,0.2 432.6,-2297.7"
         style="fill:#f77d48;fill-opacity:1;fill-rule:nonzero;stroke:none"
         id="path76" /><path
         d="m 20378.1,7019.8 c 0,0 -720.9,-3701.3 -756.1,-3879.8 -515.3,102.9 -987,301.7 -1400.6,574.2 -0.3,0.1 -0.4,0.3 -0.7,0.5 293.7,471.1 779.5,1247.7 1215.9,1931 516.3,808.3 963.3,1486.1 941.5,1374.1"
         style="fill:#f77d48;fill-opacity:1;fill-rule:nonzero;stroke:none"
         id="path78" /><path
         d="m 20365.5,7011.7 c 0,0 -3701.2,720.9 -3879.7,756.1 102.8,515.3 301.6,987.1 574.2,1400.7 0,0.2 0.2,0.4 0.4,0.6 471.1,-293.7 1247.7,-779.4 1931,-1215.9 808.3,-516.2 1486.2,-963.3 1374.1,-941.5"
         style="fill:#f77d48;fill-opacity:1;fill-rule:nonzero;stroke:none"
         id="path80" /><path
         d="m 18782,6689.5 6.1,-7.1 410.5,-489.3 -2071.3,-1399.2 c -302.5,441.4 -538.7,927.9 -642.8,1461.8 l -0.2,1.2 2297.7,432.6"
         style="fill:#f77d48;fill-opacity:1;fill-rule:nonzero;stroke:none"
         id="path82" /><path
         d="m 20435.7,7006.9 c 0,0 3701.2,-720.9 3879.7,-756.1 -102.8,-515.4 -301.6,-987.1 -574.2,-1400.7 0,-0.3 -0.2,-0.4 -0.4,-0.6 -471.1,293.7 -1247.7,779.4 -1931,1215.9 -808.3,516.2 -1486.2,963.3 -1374.1,941.5"
         style="fill:#f77d48;fill-opacity:1;fill-rule:nonzero;stroke:none"
         id="path84" /><path
         d="m 22019.2,7329.1 -6.1,7.1 -449.7,511 2110.5,1377.5 c 302.5,-441.4 538.7,-927.9 642.8,-1461.8 l 0.2,-1.2 -2297.7,-432.6"
         style="fill:#f77d48;fill-opacity:1;fill-rule:nonzero;stroke:none"
         id="path86" /><path
         d="m 23675.2,9223.8 -2069.3,-1361.1 -268.2,527.6 -14,27.5 1227.7,1913.5 c 2,-1.3 4,-2.6 5.9,-4.1 446.1,-291.3 825.1,-668.4 1117.9,-1103.4"
         style="fill:#c94c43;fill-opacity:1;fill-rule:nonzero;stroke:none"
         id="path88" /><path
         d="m 20697.3,8563.5 -609.2,-84 -21.2,114.1 -426.7,2303.6 1.2,0.2 c 484.7,94.5 995.3,99.1 1509.8,-1.1 l 1.1,-0.2 c -156.5,-813.6 -446.8,-2317.8 -455,-2332.6"
         style="fill:#c94c43;fill-opacity:1;fill-rule:nonzero;stroke:none"
         id="path90" /><path
         d="m 19450.6,5618.2 c 0,0 -1108.7,-1721.2 -1229.2,-1904 -0.3,0.1 -0.4,0.3 -0.7,0.5 -443.6,292.5 -820,669.8 -1110.6,1104.7 l 2058.3,1353.9 268.2,-527.6 14,-27.5"
         style="fill:#c94c43;fill-opacity:1;fill-rule:nonzero;stroke:none"
         id="path92" /><path
         d="m 21133.8,3131.7 v 0 c -481.6,-93.9 -989.5,-92.1 -1500.7,6 -3.7,0.8 -7.5,1.5 -11.1,2.3 152,790.2 430.2,2231.8 453.7,2327.5 l 0.3,1.6 c 0.5,1.8 0.8,3 1.1,3.4 l 609.2,84 21.1,-114.1 426.4,-2310.7"
         style="fill:#c94c43;fill-opacity:1;fill-rule:nonzero;stroke:none"
         id="path94" /><path
         d="m 18963.9,7939.2 c 0,0 -1721.2,1108.7 -1903.9,1229.3 0,0.2 0.2,0.4 0.4,0.6 292.5,443.6 669.8,820 1104.7,1110.6 l 1381.8,-1997.6 -555.5,-328.9 -27.5,-14"
         style="fill:#c94c43;fill-opacity:1;fill-rule:nonzero;stroke:none"
         id="path96" /><path
         d="m 16484.5,6255.7 -0.2,1.2 c -93.9,481.6 -99,988.6 -0.9,1499.8 0.8,3.8 1.5,7.5 2.4,11.1 790.1,-151.9 2231.7,-430.2 2327.4,-453.6 l 1.6,-0.3 c 1.9,-0.5 3,-0.9 3.4,-1.1 l 84.1,-609.2 -114.2,-21.2 -2303.6,-426.7"
         style="fill:#c94c43;fill-opacity:1;fill-rule:nonzero;stroke:none"
         id="path98" /><path
         d="m 21837.2,6079.4 c 0,0 1721.3,-1108.8 1904,-1229.3 0,-0.3 -0.2,-0.4 -0.4,-0.6 -292.5,-443.6 -685.3,-810.3 -1120.2,-1100.9 l -1366.3,1987.9 555.5,328.9 27.4,14"
         style="fill:#c94c43;fill-opacity:1;fill-rule:nonzero;stroke:none"
         id="path100" /><path
         d="m 24316.7,7762.9 0.2,-1.2 c 93.9,-481.6 99,-988.7 0.9,-1499.8 -0.8,-3.8 -1.5,-7.5 -2.4,-11.1 -790.1,151.9 -2231.7,430.2 -2327.4,453.6 l -1.6,0.3 c -1.9,0.5 -3,0.9 -3.4,1.1 l -84.1,609.2 114.2,21.2 2303.6,426.7"
         style="fill:#c94c43;fill-opacity:1;fill-rule:nonzero;stroke:none"
         id="path102" /><path
         d="m 18527.4,7369.4 c 200.6,1031 1199.1,1704.2 2230.1,1503.6 1031,-200.7 1704.2,-1199.1 1503.6,-2230.1 C 22060.5,5611.8 21062,4938.7 20031,5139.3 c -1031,200.6 -1704.2,1199 -1503.6,2230.1"
         style="fill:#c94c43;fill-opacity:1;fill-rule:nonzero;stroke:none"
         id="path104" /><path
         d="m 22059,6692.7 c -1.2,-6.4 -2.5,-12.9 -4,-19.2 -91.2,-442.7 -347.9,-809.5 -693,-1048.8 -12,-8.5 -24.3,-16.8 -36.7,-24.9 -350.8,-230.2 -786.7,-331 -1230.9,-250.3 -7.3,1.1 -14.5,2.5 -21.7,3.9 -7.3,1.4 -14.5,2.8 -21.7,4.5 -438.1,91 -801.7,344.1 -1040.8,684.3 -8.4,12 -16.7,24.1 -24.8,36.5 -232.9,350.3 -336.2,786.7 -257.2,1231.9 1.5,9.8 3.3,19.5 5.2,29.2 0.9,4.8 1.8,9.5 2.9,14.3 90.1,443.8 346.6,811.9 691.6,1052.1 12.1,8.5 24.3,16.7 36.6,24.7 350.5,230.9 786.5,332.6 1230.8,252.6 8.1,-1.2 16.4,-2.8 24.5,-4.4 6.2,-1.2 12.5,-2.5 18.7,-4 433.6,-89.1 794.6,-337.2 1034.3,-671.6 8.6,-11.8 16.9,-24 25.2,-36.1 240.2,-353.8 346.9,-797.9 265.5,-1250.5 -1.3,-8 -2.9,-16.1 -4.5,-24.2"
         style="fill:#ffffff;fill-opacity:1;fill-rule:nonzero;stroke:none"
         id="path106" /><path
         d="m 20908.5,9649 c -1454.4,283 -2867.8,-670 -3150.8,-2124.4 -283,-1454.3 670,-2867.8 2124.4,-3150.8 1454.3,-283 2867.8,670 3150.8,2124.4 283,1454.4 -670,2867.9 -2124.4,3150.8 z M 19862.4,4272.6 c -1510.2,293.8 -2499.8,1761.5 -2206,3271.7 293.9,1510.2 1761.6,2499.8 3271.8,2206 C 22438.4,9456.4 23428,7988.7 23134.1,6478.5 22840.3,4968.3 21372.6,3978.7 19862.4,4272.6"
         style="fill:#c94c43;fill-opacity:1;fill-rule:nonzero;stroke:none"
         id="path108" /><path
         d="m 20431.3,7081 -336.9,-1731.5 c -7.3,1.1 -14.5,2.5 -21.7,3.9 -7.3,1.4 -14.5,2.8 -21.7,4.5 l 316.2,1625 -1357,-940.7 c -8.4,12 -16.7,24.1 -24.8,36.5 l 1357.3,940.9 26.2,18 8,5.7 17.5,12.2 10.6,7.2 18.5,12.9 7.8,5.4"
         style="fill:#c94c43;fill-opacity:1;fill-rule:nonzero;stroke:none"
         id="path110" /><path
         d="m 22055,6673.5 -1607.7,326.2 914.7,-1375 c -12,-8.5 -24.3,-16.8 -36.7,-24.9 l -914.6,1375.1 -17.3,26.1 -7.2,10.7 -0.2,0.1 -5.1,7.7 c -0.5,0.9 -1.1,1.7 -1.7,2.8 l -10.3,15.3 -17.7,26.6 26.7,-5.4 16.5,-3.3 18,-3.7 12.7,-2.6 29.5,-6 0.1,-0.1 1608.8,-326.2 c -1.3,-8 -2.9,-16.1 -4.5,-24.2 -1.2,-6.4 -2.5,-12.9 -4,-19.2"
         style="fill:#c94c43;fill-opacity:1;fill-rule:nonzero;stroke:none"
         id="path112" /><path
         d="m 21798,7967.4 -1343.3,-924.3 -0.1,0.1 -24.6,-17 -10.8,-7.4 -14.9,-10.3 -10.9,-7.5 -7.2,10.7 -0.2,0.1 -5.1,7.7 c -0.5,0.9 -1.1,1.7 -1.7,2.8 -1.4,3.2 -2.7,8.3 -2.3,21 0.1,4.3 0.4,9.3 1,15.5 0.9,9.6 2.1,21.7 4.2,37 13.2,96.4 54.4,323.4 166,873.8 54.5,269.4 110.6,539.3 147.2,713.9 8.1,-1.2 16.4,-2.8 24.5,-4.4 6.2,-1.2 12.5,-2.5 18.7,-4 -130.3,-622.8 -290.4,-1412 -315,-1599.5 0,-0.1 0,-0.1 0,-0.3 l 7.8,5.4 1341.5,922.8 c 8.6,-11.8 16.9,-24 25.2,-36.1"
         style="fill:#c94c43;fill-opacity:1;fill-rule:nonzero;stroke:none"
         id="path114" /><path
         d="m 20447.5,7000.7 -30.7,5.5 -12.5,2.3 -18.1,3.2 -0.2,0.1 -43.3,7.8 -1614.5,291 c 1.5,9.8 3.3,19.5 5.2,29.2 0.9,4.8 1.8,9.5 2.9,14.3 L 20351,7063 19427.9,8406.2 c 12.1,8.5 24.3,16.7 36.6,24.7 l 917.6,-1335.1 22.9,-33.1 7.4,-10.9 10.3,-15 7.3,-10.6 17.5,-25.5"
         style="fill:#c94c43;fill-opacity:1;fill-rule:nonzero;stroke:none"
         id="path116" /><path
         d="m 20138.7,7081.3 c 28,143.8 167.2,237.7 311,209.7 143.7,-28 237.6,-167.2 209.6,-310.9 -28,-143.8 -167.2,-237.7 -310.9,-209.7 -143.8,28 -237.6,167.2 -209.7,310.9"
         style="fill:#2b478b;fill-opacity:1;fill-rule:nonzero;stroke:none"
         id="path118" /><path
         d="m 21276.9,6818.1 -1773.8,345.2 15.3,78.8 1773.8,-345.2 -15.3,-78.8"
         style="fill:#2b478b;fill-opacity:1;fill-rule:nonzero;stroke:none"
         id="path120" /><path
         d="m 19659.8,7174.5 c -9.3,-47.9 -85.8,-73.3 -170.9,-56.8 -85,16.6 -146.4,68.9 -137.1,116.8 9.3,47.9 85.9,73.3 170.9,56.8 85.1,-16.6 146.5,-68.8 137.1,-116.8"
         style="fill:#2b478b;fill-opacity:1;fill-rule:nonzero;stroke:none"
         id="path122" /><path
         d="m 21446.2,6826.9 c -9.3,-47.9 -85.8,-73.3 -170.9,-56.8 -85,16.6 -146.4,68.9 -137.1,116.8 9.3,47.9 85.9,73.3 170.9,56.8 85.1,-16.6 146.5,-68.8 137.1,-116.8"
         style="fill:#2b478b;fill-opacity:1;fill-rule:nonzero;stroke:none"
         id="path124" /><path
         d="m 20186.5,6152.8 345.1,1773.9 78.8,-15.4 -345.1,-1773.8 -78.8,15.3"
         style="fill:#2b478b;fill-opacity:1;fill-rule:nonzero;stroke:none"
         id="path126" /><path
         d="m 20542.9,7769.9 c -48,9.3 -73.4,85.8 -56.8,170.9 16.5,85 68.8,146.4 116.7,137.1 47.9,-9.3 73.3,-85.8 56.8,-170.9 -16.6,-85 -68.8,-146.4 -116.7,-137.1"
         style="fill:#2b478b;fill-opacity:1;fill-rule:nonzero;stroke:none"
         id="path128" /><path
         d="m 20195.3,5983.5 c -48,9.3 -73.4,85.8 -56.8,170.9 16.5,85 68.8,146.4 116.7,137.1 47.9,-9.3 73.3,-85.8 56.8,-170.9 -16.6,-85 -68.8,-146.4 -116.7,-137.1"
         style="fill:#2b478b;fill-opacity:1;fill-rule:nonzero;stroke:none"
         id="path130" /><path
         d="M 15333.7,7574.2 12483,6561.5 11150.6,10408.7 v 0.1 l -561.5,1620.9 2850.6,1012.7 1048.4,-3026.7 845.6,-2441.5"
         style="fill:#9400d3;fill-opacity:1;fill-rule:nonzero;stroke:none"
         id="path132" /><path
         d="m 12941.5,7152.1 1669,592.9 c 113.3,40.3 172.9,165.9 133.2,280.6 l -1509.9,4359.3 c -40.4,116.8 -166.7,178.2 -282,137.2 l -1662.4,-590.5 c -114.3,-40.6 -174.6,-167.4 -134.5,-283.2 l 1510.9,-4362.2 c 39.5,-114.1 162.9,-174.1 275.7,-134.1 z m 1965.2,621.5 -2213.1,-786.2 -1702.3,4915 2213.1,786.1 1702.3,-4914.9"
         style="fill:#9400d3;fill-opacity:1;fill-rule:nonzero;stroke:none"
         id="path134" /><path
         d="m 12353.5,9626.4 c -115.3,332.9 57.8,697.5 386.7,814.3 328.8,116.8 688.9,-58.3 804.2,-391.2 115.3,-332.9 -57.9,-697.5 -386.7,-814.3 -328.9,-116.8 -688.9,58.4 -804.2,391.2"
         style="fill:#b7d1f7;fill-opacity:1;fill-rule:nonzero;stroke:none"
         id="path136" /><path
         d="M 14182.7,6166.4 12021,4003 9136.93,6884.9 l -0.03,0.1 -1215.21,1214.2 2161.61,2163.3 2269,-2267.2 1830.4,-1828.9"
         style="fill:#9400d3;fill-opacity:1;fill-rule:nonzero;stroke:none"
         id="path138" /><path
         d="M 12183.1,4736.4 13448.8,6003 c 85.9,85.9 85.8,225.3 -0.2,311.2 l -3268,3265.6 c -87.6,87.4 -229.41,87.4 -316.86,-0.2 L 8603.17,8318.1 c -86.72,-86.8 -86.68,-227.5 0.12,-314.2 L 11873.5,4736.2 c 85.5,-85.4 224.2,-85.4 309.6,0.2 z M 13706.6,6158.7 12028.4,4479.2 8343.83,8160.9 10022,9840.4 13706.6,6158.7"
         style="fill:#b7d1f7;fill-opacity:1;fill-rule:nonzero;stroke:none"
         id="path140" /><path
         d="m 10573.7,6707.9 c -249.6,249.4 -249.7,653.8 -0.4,903.4 249.4,249.5 653.8,249.7 903.4,0.3 249.6,-249.4 249.7,-653.8 0.3,-903.4 -249.3,-249.5 -653.8,-249.7 -903.3,-0.3"
         style="fill:#b7d1f7;fill-opacity:1;fill-rule:nonzero;stroke:none"
         id="path142" /><path
         d="m 24811.8,2731.5 -2714.3,1007.3 c -190.7,70.8 -287.9,282.8 -217.1,473.5 l 1631.1,4394.9 c 70.7,190.7 282.7,287.9 473.4,217.2 L 26699.2,7817 c 190.7,-70.8 287.9,-282.8 217.2,-473.5 L 25285.3,2948.6 c -70.8,-190.7 -282.8,-287.9 -473.5,-217.1"
         style="fill:#ffffff;fill-opacity:1;fill-rule:nonzero;stroke:none"
         id="path144" /><path
         d="m 24476,5987.1 c 0,0 -118.8,388.8 -369.4,335.8 -293.1,-61.9 -278.1,-565.2 137.6,-960.5 l 231.8,624.7"
         style="fill:#f77d48;fill-opacity:1;fill-rule:nonzero;stroke:none"
         id="path146" /><path
         d="m 24476,5987.1 c 0,0 343.7,217.2 499.1,13.5 181.7,-238.2 -158,-609.8 -730.9,-638.2 l 231.8,624.7"
         style="fill:#f77d48;fill-opacity:1;fill-rule:nonzero;stroke:none"
         id="path148" /><path
         d="m 23844.1,8294.5 124.7,-46.2 3.9,201.6 z m 123.3,-114.3 -166.6,61.8 -72.1,-87.2 -77.7,28.8 322.2,370 67.1,-24.9 3.1,-490.7 -78,29 2,113.2"
         style="fill:#f77d48;fill-opacity:1;fill-rule:nonzero;stroke:none"
         id="path150" /><path
         d="m 23762.5,7882.5 c 0,0 -53.8,176 -167.3,152 -132.6,-28 -125.9,-255.9 62.3,-434.8 l 105,282.8"
         style="fill:#f77d48;fill-opacity:1;fill-rule:nonzero;stroke:none"
         id="path152" /><path
         d="m 23762.5,7882.5 c 0,0 155.6,98.3 225.9,6.1 82.3,-107.8 -71.5,-276.1 -330.9,-288.9 l 105,282.8"
         style="fill:#f77d48;fill-opacity:1;fill-rule:nonzero;stroke:none"
         id="path154" /><path
         d="m 24957.2,3145.1 -124.7,46.3 -3.9,-201.6 z m -123.3,114.4 166.7,-61.9 72,87.3 77.8,-28.9 -322.3,-369.9 -67.1,24.9 -3.1,490.7 78,-29 -2,-113.2"
         style="fill:#f77d48;fill-opacity:1;fill-rule:nonzero;stroke:none"
         id="path156" /><path
         d="m 25038.9,3557.2 c 0,0 53.8,-176 167.2,-152 132.7,28 125.9,255.8 -62.3,434.8 l -104.9,-282.8"
         style="fill:#f77d48;fill-opacity:1;fill-rule:nonzero;stroke:none"
         id="path158" /><path
         d="m 25038.9,3557.2 c 0,0 -155.6,-98.3 -226,-6.1 -82.2,107.8 71.6,276 330.9,288.9 l -104.9,-282.8"
         style="fill:#f77d48;fill-opacity:1;fill-rule:nonzero;stroke:none"
         id="path160" /><path
         d="M 15704.2,4182.7 12869.3,2767.9 c -199.1,-99.4 -441.2,-18.5 -540.6,180.7 L 10038,7538.7 c -99.44,199.2 -18.5,441.3 180.6,540.7 l 2834.9,1414.7 c 199.2,99.4 441.2,18.6 540.6,-180.6 l 2290.8,-4590.2 c 99.4,-199.2 18.5,-441.2 -180.7,-540.6"
         style="fill:#ffffff;fill-opacity:1;fill-rule:nonzero;stroke:none"
         id="path162" /><path
         d="m 12540.4,6001.4 c -70.4,-210.7 130.8,-519.9 362.7,-398.3 231.9,121.5 82.1,298.4 82.1,298.4 l 51.6,25.8 c 0,0 146.1,-269.4 71.1,-394.6 l 121.8,60.8 -536.6,1075.1 c 0,0 -82.3,-456.5 -152.7,-667.2"
         style="fill:#233862;fill-opacity:1;fill-rule:nonzero;stroke:none"
         id="path164" /><path
         d="m 13318.1,6389.5 c 210.7,-70.4 336.9,-417 100.3,-529.3 -236.6,-112.2 -287.9,113.8 -287.9,113.8 l -51.6,-25.7 c 0,0 127.4,-278.7 272.6,-294.1 l -121.8,-60.7 -536.6,1075.1 c 0,0 414.3,-208.7 625,-279.1"
         style="fill:#233862;fill-opacity:1;fill-rule:nonzero;stroke:none"
         id="path166" /><path
         d="m 10531.9,7514.9 130.2,65 -158.1,153.9 z m 183.5,12.9 -174,-86.8 15.8,-122.8 -81.2,-40.6 -54.5,534.2 70,34.9 394.4,-364.5 -81.5,-40.7 -89,86.3"
         style="fill:#233862;fill-opacity:1;fill-rule:nonzero;stroke:none"
         id="path168" /><path
         d="m 10614.5,7089.6 c -30.7,-91.7 56.9,-226.3 157.8,-173.4 100.9,52.9 35.8,129.9 35.8,129.9 l 22.4,11.2 c 0,0 63.6,-117.2 30.9,-171.7 l 53,26.4 -233.5,467.9 c 0,0 -35.8,-198.7 -66.4,-290.3"
         style="fill:#233862;fill-opacity:1;fill-rule:nonzero;stroke:none"
         id="path170" /><path
         d="m 10952.9,7258.5 c 91.7,-30.7 146.6,-181.5 43.7,-230.4 -103,-48.8 -125.3,49.5 -125.3,49.5 l -22.5,-11.1 c 0,0 55.5,-121.3 118.6,-128 l -53,-26.5 -233.5,467.9 c 0,0 180.3,-90.8 272,-121.4"
         style="fill:#233862;fill-opacity:1;fill-rule:nonzero;stroke:none"
         id="path172" /><path
         d="m 15531.4,4567.6 -130.3,-65 158.2,-153.9 z m -183.6,-12.9 174.1,86.9 -15.8,122.8 81.1,40.5 54.6,-534.1 -70.1,-35 -394.4,364.5 81.5,40.7 89,-86.3"
         style="fill:#233862;fill-opacity:1;fill-rule:nonzero;stroke:none"
         id="path174" /><path
         d="m 15448.8,4993 c 30.6,91.6 -56.9,226.2 -157.9,173.3 -100.9,-52.9 -35.7,-129.9 -35.7,-129.9 l -22.5,-11.2 c 0,0 -63.6,117.3 -30.9,171.7 l -53,-26.4 233.5,-467.9 c 0,0 35.8,198.7 66.5,290.4"
         style="fill:#233862;fill-opacity:1;fill-rule:nonzero;stroke:none"
         id="path176" /><path
         d="m 15110.3,4824.1 c -91.7,30.6 -146.6,181.5 -43.6,230.3 102.9,48.8 125.3,-49.5 125.3,-49.5 l 22.4,11.2 c 0,0 -55.4,121.3 -118.6,127.9 l 53,26.5 233.5,-467.9 c 0,0 -180.3,90.8 -272,121.5"
         style="fill:#233862;fill-opacity:1;fill-rule:nonzero;stroke:none"
         id="path178" /><path
         d="m 17538,2660.9 h -3279.9 c -322.7,0 -586.6,264 -586.6,586.6 V 10457 c 0,322.6 263.9,586.6 586.6,586.6 H 17538 c 322.6,0 586.6,-264 586.6,-586.6 V 3247.5 c 0,-322.6 -264,-586.6 -586.6,-586.6"
         style="fill:#2b478b;fill-opacity:1;fill-rule:nonzero;stroke:none"
         id="path180" /><path
         d="M 17903.9,10401.5 V 3359 c 0,-238.8 -194.1,-434.3 -431.1,-434.3 h -3149.5 c -237.1,0 -431.1,195.5 -431.1,434.3 v 7042.5 c 0,238.8 194,434.3 431.1,434.3 h 3149.5 c 237,0 431.1,-195.5 431.1,-434.3"
         style="fill:#9400d3;fill-opacity:1;fill-rule:nonzero;stroke:none"
         id="path182" /><path
         d="m 16556.2,10573.9 h -1316.3 c -107.2,0 -194.9,87.7 -194.9,194.9 v 30.7 c 0,107.2 87.7,194.9 194.9,194.9 h 1316.3 c 107.2,0 194.9,-87.7 194.9,-194.9 v -30.7 c 0,-107.2 -87.7,-194.9 -194.9,-194.9"
         style="fill:#2b478b;fill-opacity:1;fill-rule:nonzero;stroke:none"
         id="path184" /><path
         d="m 15454.8,13030.3 -1312.6,654.8 654.8,1312.6 1312.6,-654.9 -654.8,-1312.5"
         style="fill:#afcdfb;fill-opacity:1;fill-rule:nonzero;stroke:none"
         id="path186" /><path
         d="m 14663.2,13425.2 -1312.6,654.8 654.8,1312.6 1312.6,-654.8 -654.8,-1312.6"
         style="fill:#ffffff;fill-opacity:1;fill-rule:nonzero;stroke:none"
         id="path188" /><path
         d="m 14235.5,14457.4 c 27.1,54.4 93.2,76.5 147.6,49.4 54.4,-27.2 76.4,-93.2 49.3,-147.6 -27.1,-54.4 -93.2,-76.5 -147.6,-49.4 -54.3,27.2 -76.4,93.2 -49.3,147.6"
         style="fill:#2e3552;fill-opacity:1;fill-rule:nonzero;stroke:none"
         id="path190" /><path
         d="m 14853.7,14669.4 c 27.1,54.3 93.2,76.4 147.5,49.3 54.4,-27.1 76.5,-93.2 49.4,-147.6 -27.1,-54.4 -93.2,-76.4 -147.6,-49.3 -54.4,27.1 -76.5,93.2 -49.3,147.6"
         style="fill:#2e3552;fill-opacity:1;fill-rule:nonzero;stroke:none"
         id="path192" /><path
         d="m 13611,14232.7 c 27.2,54.4 93.2,76.5 147.6,49.4 54.4,-27.2 76.5,-93.2 49.4,-147.6 -27.2,-54.4 -93.2,-76.5 -147.6,-49.3 -54.4,27.1 -76.5,93.2 -49.4,147.5"
         style="fill:#2e3552;fill-opacity:1;fill-rule:nonzero;stroke:none"
         id="path194" /><path
         d="m 15329.6,13911.6 c 27.1,54.4 79.1,83.5 116,65.1 36.9,-18.4 44.9,-77.4 17.7,-131.8 -27.1,-54.4 -79,-83.5 -116,-65.1 -36.9,18.4 -44.8,77.4 -17.7,131.8"
         style="fill:#2e3552;fill-opacity:1;fill-rule:nonzero;stroke:none"
         id="path196" /><path
         d="m 19019.4,2700.8 h -1502.1 v 1502.1 h 1502.1 V 2700.8"
         style="fill:#afcdfb;fill-opacity:1;fill-rule:nonzero;stroke:none"
         id="path198" /><path
         d="m 18113.5,2700.8 h -1502.1 v 1502.1 h 1502.1 V 2700.8"
         style="fill:#ffffff;fill-opacity:1;fill-rule:nonzero;stroke:none"
         id="path200" /><path
         d="m 17249.8,3451.2 c 0,62.2 50.4,112.7 112.6,112.7 62.3,0 112.7,-50.5 112.7,-112.7 0,-62.3 -50.4,-112.7 -112.7,-112.7 -62.2,0 -112.6,50.4 -112.6,112.7"
         style="fill:#2e3552;fill-opacity:1;fill-rule:nonzero;stroke:none"
         id="path202" /><path
         d="m 16780.3,3928 c 0,62.2 50.4,112.6 112.6,112.6 62.3,0 112.7,-50.4 112.7,-112.6 0,-62.3 -50.4,-112.7 -112.7,-112.7 -62.2,0 -112.6,50.4 -112.6,112.7"
         style="fill:#2e3552;fill-opacity:1;fill-rule:nonzero;stroke:none"
         id="path204" /><path
         d="m 17719.3,3928 c 0,62.2 50.5,112.6 112.7,112.6 62.2,0 112.7,-50.4 112.7,-112.6 0,-62.3 -50.5,-112.7 -112.7,-112.7 -62.2,0 -112.7,50.4 -112.7,112.7"
         style="fill:#2e3552;fill-opacity:1;fill-rule:nonzero;stroke:none"
         id="path206" /><path
         d="m 16780.3,2959.8 c 0,62.3 50.4,112.7 112.6,112.7 62.3,0 112.7,-50.4 112.7,-112.7 0,-62.2 -50.4,-112.6 -112.7,-112.6 -62.2,0 -112.6,50.4 -112.6,112.6"
         style="fill:#2e3552;fill-opacity:1;fill-rule:nonzero;stroke:none"
         id="path208" /><path
         d="m 17719.3,2959.8 c 0,62.3 50.5,112.7 112.7,112.7 62.2,0 112.7,-50.4 112.7,-112.7 0,-62.2 -50.5,-112.6 -112.7,-112.6 -62.2,0 -112.7,50.4 -112.7,112.6"
         style="fill:#2e3552;fill-opacity:1;fill-rule:nonzero;stroke:none"
         id="path210" /><path
         d="m 18239.1,3928 c 0,62.2 30.1,112.6 67.3,112.6 37.1,0 67.2,-50.4 67.2,-112.6 0,-62.3 -30.1,-112.7 -67.2,-112.7 -37.2,0 -67.3,50.4 -67.3,112.7"
         style="fill:#2e3552;fill-opacity:1;fill-rule:nonzero;stroke:none"
         id="path212" /><path
         d="m 18799.6,3928 c 0,62.2 30.1,112.6 67.2,112.6 37.1,0 67.2,-50.4 67.2,-112.6 0,-62.3 -30.1,-112.7 -67.2,-112.7 -37.1,0 -67.2,50.4 -67.2,112.7"
         style="fill:#2e3552;fill-opacity:1;fill-rule:nonzero;stroke:none"
         id="path214" /><path
         d="m 18239.1,2959.8 c 0,62.3 30.1,112.7 67.3,112.7 37.1,0 67.2,-50.4 67.2,-112.7 0,-62.2 -30.1,-112.6 -67.2,-112.6 -37.2,0 -67.3,50.4 -67.3,112.6"
         style="fill:#2e3552;fill-opacity:1;fill-rule:nonzero;stroke:none"
         id="path216" /><path
         d="m 18799.6,2959.8 c 0,62.3 30.1,112.7 67.2,112.7 37.1,0 67.2,-50.4 67.2,-112.7 0,-62.2 -30.1,-112.6 -67.2,-112.6 -37.1,0 -67.2,50.4 -67.2,112.6"
         style="fill:#2e3552;fill-opacity:1;fill-rule:nonzero;stroke:none"
         id="path218" /><path
         d="m 12526.2,4822.6 c 0,-146.9 -24.1,-288.1 -68.6,-420 -53,-157.4 -134.9,-301.5 -239.6,-425.8 -191.9,-228.6 -460.3,-390.8 -765.9,-447.3 -78.2,-14.7 -158.9,-22.3 -241.3,-22.3 -85.1,0 -168.3,8.1 -248.9,23.7 -300,57.4 -563.9,216.6 -753.8,440.6 -105.4,123.7 -188,267.2 -241.81,424.3 -45.98,133.8 -70.89,277.4 -70.89,426.8 0,160.1 28.64,313.5 81.02,455.3 56.78,154.1 141.58,294.5 248.28,415.2 190,215.1 449.2,367.6 742.9,422.3 78.8,14.9 160.1,22.6 243.2,22.6 81.5,0 161.3,-7.5 238.7,-21.8 293.7,-53.6 553.2,-205 743.6,-419 107.4,-120.4 192.9,-260.5 250.2,-414.4 53.6,-143.2 82.9,-298.4 82.9,-460.2"
         style="fill:#385ba3;fill-opacity:1;fill-rule:nonzero;stroke:none"
         id="path220" /><path
         d="m 10236.8,4822.6 c 0,538 436.1,974.1 974,974.1 538,0 974.1,-436.1 974.1,-974.1 0,-537.9 -436.1,-974 -974.1,-974 -537.9,0 -974,436.1 -974,974"
         style="fill:#2b478b;fill-opacity:1;fill-rule:nonzero;stroke:none"
         id="path222" /><path
         d="m 10340.3,4822.6 c 0,480.8 389.8,870.5 870.5,870.5 480.8,0 870.5,-389.7 870.5,-870.5 0,-480.7 -389.7,-870.5 -870.5,-870.5 -480.7,0 -870.5,389.8 -870.5,870.5"
         style="fill:#385ba3;fill-opacity:1;fill-rule:nonzero;stroke:none"
         id="path224" /><path
         d="m 11449.5,6116.2 -21.4,-218.8 h -434.5 l -26,218 c 78.8,14.9 160.1,22.6 243.2,22.6 81.5,0 161.3,-7.5 238.7,-21.8"
         style="fill:#e1efff;fill-opacity:1;fill-rule:nonzero;stroke:none"
         id="path226" /><path
         d="m 11452.1,3529.5 c -78.2,-14.7 -158.9,-22.3 -241.3,-22.3 -85.1,0 -168.3,8.1 -248.9,23.7 l 25,255.7 h 434.6 l 30.6,-257.1"
         style="fill:#e1efff;fill-opacity:1;fill-rule:nonzero;stroke:none"
         id="path228" /><path
         d="m 12443.3,5282.8 -210.5,-97.2 -219.7,374.8 180,136.8 c 107.4,-120.4 192.9,-260.5 250.2,-414.4"
         style="fill:#e1efff;fill-opacity:1;fill-rule:nonzero;stroke:none"
         id="path230" /><path
         d="m 10408.6,4123.6 -200.5,-152.1 c -105.4,123.7 -188,267.2 -241.81,424.3 l 222.41,102.6 219.9,-374.8"
         style="fill:#e1efff;fill-opacity:1;fill-rule:nonzero;stroke:none"
         id="path232" /><path
         d="m 12457.6,4402.6 c -53,-157.4 -134.9,-301.5 -239.6,-425.8 l -205.8,147.5 217.7,376.1 227.7,-97.8"
         style="fill:#e1efff;fill-opacity:1;fill-rule:nonzero;stroke:none"
         id="path234" /><path
         d="m 10406.1,5563.1 -217.7,-376.3 -211.98,91.1 c 56.78,154.1 141.58,294.5 248.28,415.2 l 181.4,-130"
         style="fill:#e1efff;fill-opacity:1;fill-rule:nonzero;stroke:none"
         id="path236" /><path
         d="m 12075.8,2924.6 v -176.8 c 0,-25.3 -20.7,-45.9 -45.8,-45.9 H 9504.94 c -25.26,0 -45.87,20.6 -45.87,45.9 v 176.8 c 0,25.2 20.61,45.8 45.87,45.8 H 12030 c 25.1,0 45.8,-20.6 45.8,-45.8"
         style="fill:#385ba3;fill-opacity:1;fill-rule:nonzero;stroke:none"
         id="path238" /><path
         d="M 11000.6,2701.9 H 10532 l 13.8,268.5 h 438 l 16.8,-268.5"
         style="fill:#e1efff;fill-opacity:1;fill-rule:nonzero;stroke:none"
         id="path240" /><path
         d="m 10056.2,2701.9 h -468.62 l 13.86,268.5 h 437.96 l 16.8,-268.5"
         style="fill:#e1efff;fill-opacity:1;fill-rule:nonzero;stroke:none"
         id="path242" /><path
         d="m 11990.1,2701.9 h -468.7 l 13.9,268.5 h 437.9 l 16.9,-268.5"
         style="fill:#e1efff;fill-opacity:1;fill-rule:nonzero;stroke:none"
         id="path244" /><path
         d="m 12309,3193.1 v -176.9 c 0,-25.2 -20.6,-45.8 -45.8,-45.8 H 9738.15 c -25.25,0 -45.86,20.6 -45.86,45.8 v 176.9 c 0,25.1 20.61,45.7 45.86,45.7 h 2525.05 c 25.2,0 45.8,-20.6 45.8,-45.7"
         style="fill:#385ba3;fill-opacity:1;fill-rule:nonzero;stroke:none"
         id="path246" /><path
         d="m 11233.9,2970.4 h -468.7 l 13.9,268.4 h 437.9 l 16.9,-268.4"
         style="fill:#cfe7ff;fill-opacity:1;fill-rule:nonzero;stroke:none"
         id="path248" /><path
         d="m 10289.5,2970.4 h -468.7 l 13.86,268.4 h 437.94 l 16.9,-268.4"
         style="fill:#cfe7ff;fill-opacity:1;fill-rule:nonzero;stroke:none"
         id="path250" /><path
         d="m 12223.3,2970.4 h -468.7 l 13.9,268.4 h 437.9 l 16.9,-268.4"
         style="fill:#cfe7ff;fill-opacity:1;fill-rule:nonzero;stroke:none"
         id="path252" /><path
         d="m 12117.5,3461.5 v -176.8 c 0,-25.3 -20.6,-45.9 -45.8,-45.9 H 9546.65 c -25.26,0 -45.86,20.6 -45.86,45.9 v 176.8 c 0,25.1 20.6,45.7 45.86,45.7 h 2525.05 c 25.2,0 45.8,-20.6 45.8,-45.7"
         style="fill:#385ba3;fill-opacity:1;fill-rule:nonzero;stroke:none"
         id="path254" /><path
         d="m 11042.3,3238.8 h -468.6 l 13.8,268.4 h 438 l 16.8,-268.4"
         style="fill:#e1efff;fill-opacity:1;fill-rule:nonzero;stroke:none"
         id="path256" /><path
         d="m 10097.9,3238.8 h -468.6 l 13.85,268.4 h 437.95 l 16.8,-268.4"
         style="fill:#e1efff;fill-opacity:1;fill-rule:nonzero;stroke:none"
         id="path258" /><path
         d="m 12031.8,3238.8 h -468.7 l 13.9,268.4 h 437.9 l 16.9,-268.4"
         style="fill:#e1efff;fill-opacity:1;fill-rule:nonzero;stroke:none"
         id="path260" /><path
         d="m 9038.64,3957.4 c 0,-140.9 -23.12,-276.4 -65.78,-402.9 -50.81,-151 -129.43,-289.3 -229.83,-408.6 -184.16,-219.3 -441.7,-374.9 -734.85,-429.1 -75.05,-14.1 -152.45,-21.4 -231.51,-21.4 -81.64,0 -161.49,7.7 -238.77,22.7 -287.8,55.1 -540.98,207.8 -723.24,422.7 -101.07,118.7 -180.36,256.4 -231.95,407.1 -44.12,128.4 -68.02,266.1 -68.02,409.5 0,153.6 27.47,300.8 77.73,436.8 54.5,147.8 135.8,282.5 238.21,398.3 182.26,206.4 430.97,352.7 712.74,405.2 75.6,14.3 153.56,21.7 233.3,21.7 78.17,0 154.79,-7.2 229.05,-20.9 281.77,-51.5 530.7,-196.7 713.41,-402.1 102.96,-115.4 185.05,-249.9 240,-397.5 51.48,-137.4 79.51,-286.3 79.51,-441.5"
         style="fill:#c94c43;fill-opacity:1;fill-rule:nonzero;stroke:none"
         id="path262" /><path
         d="m 6842.19,3957.4 c 0,516.1 418.39,934.5 934.5,934.5 516.11,0 934.5,-418.4 934.5,-934.5 0,-516.1 -418.39,-934.5 -934.5,-934.5 -516.11,0 -934.5,418.4 -934.5,934.5"
         style="fill:#a82c29;fill-opacity:1;fill-rule:nonzero;stroke:none"
         id="path264" /><path
         d="m 6941.55,3957.4 c 0,461.2 373.91,835.1 835.14,835.1 461.23,0 835.14,-373.9 835.14,-835.1 0,-461.2 -373.91,-835.1 -835.14,-835.1 -461.23,0 -835.14,373.9 -835.14,835.1"
         style="fill:#c94c43;fill-opacity:1;fill-rule:nonzero;stroke:none"
         id="path266" /><path
         d="m 8005.72,5198.5 -20.55,-210 h -416.9 l -24.9,209.2 c 75.6,14.3 153.56,21.7 233.3,21.7 78.17,0 154.79,-7.2 229.05,-20.9"
         style="fill:#ffffff;fill-opacity:1;fill-rule:nonzero;stroke:none"
         id="path268" /><path
         d="m 8008.18,2716.8 c -75.05,-14.1 -152.45,-21.4 -231.51,-21.4 -81.64,0 -161.49,7.7 -238.77,22.7 l 24,245.4 h 416.9 l 29.38,-246.7"
         style="fill:#ffffff;fill-opacity:1;fill-rule:nonzero;stroke:none"
         id="path270" /><path
         d="m 8959.13,4398.9 -201.92,-93.3 -210.85,359.6 172.77,131.2 c 102.96,-115.4 185.05,-249.9 240,-397.5"
         style="fill:#ffffff;fill-opacity:1;fill-rule:nonzero;stroke:none"
         id="path272" /><path
         d="m 7007.08,3286.8 -192.42,-146 c -101.07,118.7 -180.36,256.4 -231.95,407.1 l 213.41,98.5 210.96,-359.6"
         style="fill:#ffffff;fill-opacity:1;fill-rule:nonzero;stroke:none"
         id="path274" /><path
         d="m 8972.86,3554.5 c -50.81,-151 -129.43,-289.3 -229.83,-408.6 l -197.45,141.5 208.84,360.9 218.44,-93.8"
         style="fill:#ffffff;fill-opacity:1;fill-rule:nonzero;stroke:none"
         id="path276" /><path
         d="m 7004.63,4667.8 -208.84,-361 -203.37,87.4 c 54.5,147.8 135.8,282.5 238.21,398.3 l 174,-124.7"
         style="fill:#ffffff;fill-opacity:1;fill-rule:nonzero;stroke:none"
         id="path278" /><path
         d="m 6734.36,8222.3 c 3.72,15 -325.64,-148.8 -342.35,-167.4 -154.47,-171.3 -110.42,-394.9 -22.03,-397 56.68,-1.4 45.7,-95.7 45.7,-95.7 l 631.51,267.2 c 0,0 -76.04,443.4 -312.83,392.9"
         style="fill:#2c3a64;fill-opacity:1;fill-rule:nonzero;stroke:none"
         id="path280" /><path
         d="m 6812.11,8187.7 c 0,0 22.57,246 -252.3,246 0,0 83.29,-22.5 126.38,-67.7 0,0 -175.32,102.9 -366.1,-55.3 -190.79,-158.1 -72.24,-554.7 -130.26,-630.1 -58.02,-75.3 -283.95,-90.3 -256.33,-333.8 27.61,-243.5 717.04,-548.5 672.76,-750 0,0 270.19,397.2 76.99,578.4 0,0 94.17,-88.7 103.76,-194.1 0,0 25.55,205.8 -105.44,271.7 -115.91,58.3 -210.87,271.3 -200.82,309.4 10.04,38.1 331.36,625.5 331.36,625.5"
         style="fill:#2c3a64;fill-opacity:1;fill-rule:nonzero;stroke:none"
         id="path282" /><path
         d="m 6562.52,7030.3 c -42.38,204.2 -307.03,267.4 -432.24,100.8 -22.52,-30 -38.37,-65.4 -43.53,-107.3 -28.59,-231.6 341.84,-1175.3 394.9,-1260.8 96.57,-155.5 665.28,-688.8 665.28,-688.8 l 104.82,63.6 c 0,0 -403.39,682.9 -465.85,746.8 -72.22,73.9 -142.9,758.2 -223.38,1145.7"
         style="fill:#ed985f;fill-opacity:1;fill-rule:nonzero;stroke:none"
         id="path284" /><path
         d="m 7107.07,5137.5 c 0,0 152.97,100.4 210.88,93.9 57.91,-6.4 225.52,-54.7 227.56,-79.3 2.05,-24.6 -186.75,-40 -199.42,-53.5 -12.68,-13.5 -140.88,-99 -187.35,-72.2 -46.47,26.8 -51.67,111.1 -51.67,111.1"
         style="fill:#ed985f;fill-opacity:1;fill-rule:nonzero;stroke:none"
         id="path286" /><path
         d="m 6040.03,2868.3 -136.66,20.1 c 0,0 -459.49,365.2 -527.93,1046.5 -6.97,69.4 -8.43,139.7 -3.26,210.7 0.6,8.2 -0.3,16.4 -4.77,23.2 0,0.1 -0.05,0.1 -0.15,0.2 -14.71,22.6 -51.31,79.1 -100.86,159.4 -48.86,79.1 -132.45,228.7 -224.43,396.6 -165.68,302.4 -358.57,664 -424.75,779.1 -210.81,367.1 -109.2,613.9 -109.2,613.9 0,0 588.13,58.2 749.29,199.1 l 58.04,-89.4 c 0,0 127.42,-564.2 121.4,-566.8 6.27,-19.2 12.65,-38.7 19.13,-58.6 100.56,-310.3 216.24,-698.3 279.3,-1014.2 35.45,-177.8 54.22,-332.7 44.13,-438.2 -3.47,-36.2 0.75,-91.9 10.39,-160.6 56.94,-404.8 250.33,-1121 250.33,-1121"
         style="fill:#2b478b;fill-opacity:1;fill-rule:nonzero;stroke:none"
         id="path288" /><path
         d="m 6326.69,2695.4 h -570.15 c 0,0 -13.66,86.9 16.12,152.8 28.54,63.3 69.21,65.3 5.19,164.5 36.23,-37.3 152.7,-52.8 235.12,-41.7 10.1,-16.3 65.11,-126.2 98.85,-150.4 37.26,-26.8 203.4,-17.3 214.87,-125.2"
         style="fill:#233862;fill-opacity:1;fill-rule:nonzero;stroke:none"
         id="path290" /><path
         d="m 5455.88,5602.3 c -49.81,-274.6 -167.44,-731.8 -413.91,-877.3 -165.68,302.4 -358.57,664 -424.75,779.1 -210.81,367.1 -109.2,613.9 -109.2,613.9 0,0 588.13,58.2 749.29,199.1 l 58.04,-89.4 c 0,0 127.42,-564.2 121.4,-566.8 6.27,-19.2 12.65,-38.7 19.13,-58.6"
         style="fill:#233862;fill-opacity:1;fill-rule:nonzero;stroke:none"
         id="path292" /><path
         d="m 6501.53,7157 c 0,0 80.61,-83.9 117.43,-184.3 0,0 -128.6,-369.3 -429.13,-415.6 0,0 237.78,600 311.7,599.9"
         style="fill:#9400d3;fill-opacity:1;fill-rule:nonzero;stroke:none"
         id="path294" /><path
         d="m 5056.01,6075.6 1.93,106.6 c -212.46,-26.8 -732.56,253.9 -732.56,253.9 0,0 -222.27,-147.8 -252.69,-570 -14.86,-206.1 -108.81,-1077.5 -119.2,-1337.8 -3.79,-94.3 -5.05,-161.6 -5.48,-188.5 0.05,-0.1 0.04,-0.2 0.03,-0.3 -0.13,-8.2 -3.98,-15.4 -9.04,-21.9 -43.95,-55.9 -82.1,-115.1 -115.12,-176.5 -324.19,-603.2 -154.66,-1422.8 -154.66,-1422.8 l 75.29,19.2 c 0,0 274.12,849.6 453.28,1217.1 30.41,62.4 58.03,110.9 81.14,138.9 67.36,81.9 138.39,220.8 208.41,388 132.35,316.2 260.83,733.3 352.47,1056.3 6.47,-1.1 216.2,537.8 216.2,537.8"
         style="fill:#2b478b;fill-opacity:1;fill-rule:nonzero;stroke:none"
         id="path296" /><path
         d="m 6299.31,6787.3 c -347.32,79.7 -125.43,567.8 -105.31,559.2 48.13,9.8 153.82,94.3 248.36,259.3 l 12.78,-11.1 213.32,-187 c 0,0 -49.31,-72.7 -90.79,-144 -32.42,-55.8 -59.97,-110.7 -55.59,-129.6 17.17,-13.5 -130.13,-368.1 -222.77,-346.8"
         style="fill:#ffb27d;fill-opacity:1;fill-rule:nonzero;stroke:none"
         id="path298" /><path
         d="m 6668.45,7407.6 c 0,0 -49.32,-72.6 -90.79,-143.9 -132.63,81.7 -132.77,245.9 -122.55,331 l 213.34,-187.1"
         style="fill:#ed985f;fill-opacity:1;fill-rule:nonzero;stroke:none"
         id="path300" /><path
         d="m 6674.37,7314 c 0,0 -322.03,179.2 -207.35,378 114.67,198.8 150.34,355.9 360.8,249.8 210.46,-106 206.3,-204.7 184.16,-280.3 -22.14,-75.7 -250.89,-389 -337.61,-347.5"
         style="fill:#ffb27d;fill-opacity:1;fill-rule:nonzero;stroke:none"
         id="path302" /><path
         d="m 7066.38,7777.4 c -14.75,88.3 -59.6,96.7 -90.86,90.8 -118.93,196.7 -313.23,120 -313.23,120 -103.77,-130.3 -253.81,-152.5 -253.81,-152.5 0,0 37.37,-69.5 191.33,-112.6 47.04,-13.1 100.42,-5.2 151.9,12.2 -106.82,-59.6 -218.54,-82.4 -218.54,-82.4 202.9,-18.6 395.96,166.9 415.98,186.8 9.37,-28.8 25.78,-89 15.95,-133 -13.35,-59.7 -66.43,-168 -34.03,-182.1 0,0 157.43,120.4 135.31,252.8"
         style="fill:#2c3a64;fill-opacity:1;fill-rule:nonzero;stroke:none"
         id="path304" /><path
         d="m 4122.62,2695.4 h -570.15 c 0,0 -13.67,86.9 16.11,152.8 28.54,63.3 73.23,92.1 62.53,168.6 36.23,-37.3 95.28,-79.1 177.7,-68 10.1,-16.4 65.19,-104 98.93,-128.2 37.26,-26.8 203.4,-17.3 214.88,-125.2"
         style="fill:#233862;fill-opacity:1;fill-rule:nonzero;stroke:none"
         id="path306" /><path
         d="m 6340.17,6400.4 c -73.35,-25.6 -176.33,-39.6 -281.66,-51.1 -149.92,-16.4 -304.71,-27.6 -385.79,-59.9 -29.57,-11.8 -49.35,-26.3 -55.53,-45 -35.14,-105.7 -190.03,-268.7 -190.03,-268.7 -992.79,45.2 -1101.79,460.4 -1101.79,460.4 667.95,776.7 1798.91,1001.5 1798.91,1001.5 0,0 80.78,34.3 284.22,-127.4 135.76,-107.9 117.89,-149.3 117.89,-149.3 0,0 29.67,-685.2 -186.22,-760.5"
         style="fill:#9400d3;fill-opacity:1;fill-rule:nonzero;stroke:none"
         id="path308" /><path
         d="m 6058.51,6349.3 c -149.92,-16.4 -304.71,-27.6 -385.79,-59.9 -33.14,495.2 200.53,867.6 200.53,867.6 0,0 152.42,-620.3 185.26,-807.7"
         style="fill:#9400d3;fill-opacity:1;fill-rule:nonzero;stroke:none"
         id="path310" /><path
         d="m 6212.81,7252.8 c 0,0 -375.74,-37.1 -405.86,-281.3 -30.12,-244.1 360.23,-1238.5 416.14,-1328.6 101.77,-163.9 701.06,-725.8 701.06,-725.8 l 110.46,66.9 c 0,0 -425.09,719.6 -490.9,787 -103.33,105.7 -203.67,1397.2 -330.9,1481.8"
         style="fill:#ffb27d;fill-opacity:1;fill-rule:nonzero;stroke:none"
         id="path312" /><path
         d="m 5817.79,6824.6 c 0.99,-5.5 346.77,-112.9 569.29,0 0,0 47.63,513.5 -218.04,485.6 -265.67,-27.9 -422.99,-111.5 -429.68,-238.7 -6.69,-127.2 78.43,-246.9 78.43,-246.9"
         style="fill:#9400d3;fill-opacity:1;fill-rule:nonzero;stroke:none"
         id="path314" /><path
         d="m 6890,4988.4 c 0,0 134.79,123.8 192.98,126.8 58.2,2.9 231.39,-17.7 237.37,-41.7 5.99,-23.9 -177.86,-69.5 -188.2,-84.9 -10.33,-15.3 -123.06,-120.4 -173.25,-101.4 -50.19,19 -68.9,101.2 -68.9,101.2"
         style="fill:#ffb27d;fill-opacity:1;fill-rule:nonzero;stroke:none"
         id="path316" /><path
         d="m 16961.1,4864.4 c -8.3,-5.1 -16.8,-10 -25.4,-14.8 -2.9,-1.6 -5.8,-3.2 -8.7,-4.7 -6.7,-3.6 -13.4,-7 -20.1,-10.3 -321.8,-158 -714.2,-36.7 -889.2,280.6 -166.8,302.6 -77.1,677.5 196.6,874.4 21.9,15.7 44.9,30.2 69,43.5 8.6,4.8 17.4,9.4 26.2,13.7 8.5,4.3 17.1,8.3 25.7,12.1 26.5,11.8 53.3,21.8 80.5,29.9 40.3,12.1 81.3,20.3 122.3,24.7 127.3,13.5 255.4,-9.8 368.9,-65.4 120.5,-58.9 224.7,-154.2 294.4,-280.5 175.4,-318.2 67.3,-716.2 -240.2,-903.2"
         style="fill:#ffb93e;fill-opacity:1;fill-rule:nonzero;stroke:none"
         id="path318" /><path
         d="m 16612.5,6023.8 c -98.1,0 -195.2,-24.8 -283.6,-73.5 -137.8,-76 -237.7,-201.1 -281.5,-352.2 -43.7,-151.2 -25.9,-310.3 50,-448.1 v 0 c 156.8,-284.5 515.9,-388.4 800.3,-231.5 284.5,156.8 388.4,515.8 231.6,800.3 -76,137.8 -201.1,237.8 -352.2,281.5 -54.3,15.7 -109.6,23.5 -164.6,23.5 z m 1.9,-1194.8 c -213.7,0 -421.1,113.1 -531.3,313.1 v 0 c -78,141.6 -96.3,305.2 -51.4,460.5 45,155.4 147.7,283.9 289.4,362 141.6,78.1 305.2,96.3 460.5,51.4 155.3,-45 283.9,-147.7 362,-289.3 161.1,-292.4 54.4,-661.4 -238,-822.5 -92.4,-51 -192.5,-75.2 -291.2,-75.2"
         style="fill:#ffa412;fill-opacity:1;fill-rule:nonzero;stroke:none"
         id="path320" /><path
         d="m 16911.1,5375.6 c -1.3,3.3 -2.7,6.5 -4.2,9.7 -10.9,24.1 -24.6,43.6 -41,58.5 -18.5,16.9 -40,29.6 -64.5,38 -24.5,8.4 -51.8,13.6 -82,15.4 -30.1,1.9 -62.9,2.3 -98.4,1.3 -21.9,-0.7 -40.7,-0.3 -56.2,1.1 -15.6,1.4 -28.8,4.3 -39.6,8.7 -10.8,4.3 -19.6,10.3 -26.4,17.9 -6.8,7.5 -12.4,16.7 -16.8,27.7 -4.4,10.9 -7,21.7 -7.6,32.4 -0.7,10.7 0.9,20.9 4.8,30.6 3.8,9.6 10.1,18.5 18.8,26.7 8.7,8.2 20.2,15.1 34.5,21 26.3,10.7 50.9,10.4 73.8,-0.8 22.8,-11.1 41.4,-34.4 55.8,-69.8 l 137.6,55.9 c -11.9,29.5 -26.9,54.4 -45,74.7 -18,20.3 -38.4,36 -61,47.1 -22.6,11.1 -47.3,17.6 -74,19.5 -26.6,1.9 -54.3,-1 -83,-8.5 l -39,96 -76.2,-30.9 38.4,-94.7 c -27.5,-14.3 -50.8,-30.9 -69.9,-49.8 -19.2,-18.9 -33.9,-39.4 -44.1,-61.5 -10.3,-22 -15.7,-45.2 -16.2,-69.4 -0.5,-24.3 4.3,-48.9 14.5,-74 11.7,-28.9 26.8,-51.8 45.3,-68.7 18.5,-16.8 40,-29.4 64.5,-37.7 24.4,-8.3 51.8,-13.3 82,-14.9 30.2,-1.6 63.2,-1.6 98.7,0.1 20.6,1.2 38.5,1.1 53.7,-0.3 15.2,-1.4 28.3,-4.3 39.3,-8.8 11.1,-4.4 20.3,-10.6 27.6,-18.7 7.3,-8 13.5,-18.2 18.5,-30.6 4.5,-10.9 6.7,-21.8 6.6,-32.6 0,-10.9 -2.5,-21.2 -7.3,-31.1 -4.9,-9.9 -12.2,-19 -21.9,-27.4 -9.7,-8.4 -22,-15.7 -37,-21.7 -13,-5.3 -26.4,-8.8 -40.4,-10.5 -13.9,-1.7 -27.5,-0.4 -40.7,4.1 -13.3,4.4 -25.7,12.4 -37.3,24 -11.5,11.6 -21.6,27.9 -30.1,48.9 l -137.6,-55.9 c 14.4,-35.4 32.4,-63.5 54.1,-84.2 21.8,-20.7 45.6,-35.6 71.4,-44.5 25.8,-8.9 52.8,-12.8 81,-11.7 28.2,1.2 56,5.8 83.5,13.8 l 35.5,-87.6 75.7,30.8 -35.7,88 c 27.5,14.3 51,30.7 70.7,49.3 18.1,17.3 32.4,35.8 42.6,55.7 0.9,1.6 1.7,3.2 2.4,4.9 10.4,21.7 16,44.7 16.6,69.1 0.7,24.3 -4.2,49.4 -14.8,75.4"
         style="fill:#ffa412;fill-opacity:1;fill-rule:nonzero;stroke:none"
         id="path322" /><path
         d="m 14767.7,9813.3 c -3.9,0.1 -7.7,0.3 -11.5,0.5 -1.4,0.1 -2.7,0.2 -3.9,0.3 -3,0.2 -5.9,0.5 -8.8,0.8 -139.9,15.5 -244.4,138.4 -235.4,280.4 8.5,135.4 117.2,240.7 249.4,248.2 10.5,0.6 21.2,0.5 32,-0.1 3.9,-0.3 7.8,-0.6 11.6,-1 3.7,-0.4 7.4,-0.9 11.1,-1.4 11.2,-1.7 22.2,-4.1 32.9,-7.1 15.9,-4.5 31.2,-10.4 45.7,-17.6 45,-22.4 82.5,-57.1 108.4,-99.4 27.5,-44.9 42,-98.5 38.4,-155 -9,-142.4 -128.7,-251.4 -269.9,-248.6"
         style="fill:#ffb93e;fill-opacity:1;fill-rule:nonzero;stroke:none"
         id="path324" /><path
         d="m 14896.6,10270.9 c -32.5,20.6 -69.9,32.9 -109.4,35.4 -61.7,3.9 -121.2,-16.5 -167.5,-57.3 -46.3,-40.9 -74,-97.3 -77.9,-159 v 0 c -8,-127.3 89,-237.4 216.3,-245.4 127.3,-8 237.3,89 245.4,216.3 3.9,61.7 -16.5,121.2 -57.4,167.5 -14.6,16.6 -31.3,30.9 -49.5,42.5 z m -251.2,-396.2 c -70.8,45.1 -115.6,126.2 -110,215.7 v 0 c 4,63.4 32.4,121.4 80.1,163.4 47.6,42 108.7,62.9 172.1,58.9 63.4,-4 121.4,-32.4 163.4,-80.1 41.9,-47.6 62.9,-108.7 58.9,-172.1 -8.3,-130.8 -121.4,-230.5 -252.2,-222.3 -41.4,2.6 -79.6,15.7 -112.3,36.5"
         style="fill:#ffa412;fill-opacity:1;fill-rule:nonzero;stroke:none"
         id="path326" /><path
         d="m 14858.9,9993.2 c 0.2,1.4 0.4,2.8 0.6,4.1 1.5,10.3 1.1,19.6 -1.2,28.1 -2.6,9.4 -7,18.2 -13.4,26.1 -6.3,8 -14.3,15.4 -23.9,22.4 -9.6,7 -20.4,14 -32.3,21.2 -7.4,4.4 -13.5,8.5 -18.4,12.2 -4.9,3.7 -8.6,7.5 -11.3,11.2 -2.7,3.7 -4.3,7.6 -5,11.5 -0.6,3.9 -0.5,8.2 0.3,12.7 0.8,4.6 2.3,8.7 4.3,12.4 2.1,3.7 4.7,6.7 8.1,9.1 3.3,2.4 7.2,4 11.8,4.9 4.6,0.8 9.9,0.7 15.9,-0.4 11,-2 19.1,-7.2 24.3,-15.8 5.2,-8.5 6.4,-20.1 3.7,-34.8 l 57.4,-10.5 c 2.3,12.2 2.5,23.7 0.8,34.2 -1.7,10.5 -5.1,20 -10.2,28.5 -5.2,8.4 -12,15.8 -20.4,22 -8.5,6.2 -18.2,11.1 -29.3,14.7 l 7.3,40 -31.8,5.8 -7.2,-39.4 c -12.1,1 -23.3,0.5 -33.7,-1.8 -10.3,-2.2 -19.5,-5.9 -27.5,-11 -8.1,-5.2 -14.7,-11.7 -20,-19.6 -5.3,-8 -8.9,-17.1 -10.8,-27.6 -2.2,-12 -2,-22.8 0.5,-32.3 2.6,-9.5 7.1,-18.2 13.4,-26.1 6.4,-7.9 14.4,-15.3 24.1,-22.2 9.6,-6.9 20.5,-13.9 32.7,-20.8 7,-3.9 12.9,-7.7 17.7,-11.4 4.7,-3.7 8.4,-7.4 11.2,-11.2 2.7,-3.8 4.4,-7.8 5.2,-12 0.7,-4.2 0.6,-8.9 -0.4,-14 -0.8,-4.6 -2.4,-8.7 -4.7,-12.2 -2.3,-3.6 -5.2,-6.5 -8.9,-8.8 -3.7,-2.2 -8.1,-3.7 -13.1,-4.5 -5,-0.7 -10.6,-0.5 -16.8,0.6 -5.4,1 -10.6,2.7 -15.6,5.1 -5,2.4 -9.2,5.7 -12.6,9.9 -3.5,4.3 -5.9,9.6 -7.3,15.8 -1.4,6.3 -1.3,13.8 0.3,22.6 l -57.3,10.5 c -2.7,-14.8 -2.7,-27.9 0.2,-39.3 2.8,-11.5 7.5,-21.4 14.2,-29.8 6.7,-8.4 14.8,-15.4 24.4,-20.9 9.6,-5.6 19.8,-10 30.5,-13.1 l -6.7,-36.5 31.6,-5.8 6.7,36.7 c 12.1,-1 23.4,-0.6 33.8,1.5 9.7,1.9 18.3,5 25.9,9.4 0.6,0.4 1.2,0.8 1.8,1.1 8,5 14.7,11.5 20.1,19.4 5.3,7.9 9,17.3 11,28.1"
         style="fill:#ffa412;fill-opacity:1;fill-rule:nonzero;stroke:none"
         id="path328" /><path
         d="m 16869.6,8883.2 c -6.1,-5.8 -12.3,-11.5 -18.7,-17 -2.2,-1.9 -4.4,-3.7 -6.6,-5.5 -4.9,-4.2 -9.9,-8.3 -15,-12.3 -243.1,-191 -595.9,-159.1 -800.4,77.2 -195,225.3 -186.6,557.7 9,772.8 15.6,17.2 32.4,33.6 50.4,49.1 6.4,5.6 13,11 19.6,16.3 6.4,5.1 12.9,10 19.5,14.8 20.2,14.7 41.1,27.9 62.6,39.6 31.8,17.5 64.9,31.8 98.7,42.8 105,34.2 217.2,37.5 322.9,11.1 112.2,-28.1 217.2,-89.8 298.6,-183.9 205.1,-237 185.3,-592.1 -40.6,-805"
         style="fill:#ffb93e;fill-opacity:1;fill-rule:nonzero;stroke:none"
         id="path330" /><path
         d="m 16367.7,9798.7 c -82.8,-17.6 -160.3,-55.9 -226.1,-112.9 -102.6,-88.7 -164.5,-212.2 -174.3,-347.5 -9.7,-135.4 33.8,-266.5 122.6,-369.1 v 0 c 183.3,-211.8 504.8,-235 716.6,-51.7 211.8,183.3 235.1,504.8 51.8,716.6 -88.8,102.6 -212.3,164.5 -347.6,174.3 -48.6,3.5 -96.7,0.1 -143,-9.7 z m 215.8,-1007.5 c -180.2,-38.3 -375.4,19.9 -504.3,168.8 v 0 c -91.2,105.5 -135.9,240.2 -125.9,379.3 10,139.1 73.7,265.9 179.1,357.2 105.5,91.2 240.2,136 379.3,125.9 139.1,-10 266,-73.6 357.2,-179.1 188.4,-217.7 164.5,-548.1 -53.2,-736.5 -68.8,-59.5 -148.9,-97.9 -232.2,-115.6"
         style="fill:#ffa412;fill-opacity:1;fill-rule:nonzero;stroke:none"
         id="path332" /><path
         d="m 16735.8,9305.5 c -1.7,2.5 -3.5,5 -5.3,7.4 -13.5,18.3 -28.6,32.4 -45.1,42 -18.6,10.9 -39,17.8 -61.2,20.5 -22.2,2.7 -46.1,2.1 -71.9,-1.7 -25.8,-3.9 -53.5,-9.4 -83.3,-16.6 -18.3,-4.5 -34.2,-7.5 -47.6,-9.1 -13.4,-1.6 -25,-1.6 -34.9,0.2 -10,1.7 -18.5,5.2 -25.5,10.3 -7.1,5.2 -13.5,12 -19.2,20.4 -5.7,8.4 -9.7,17.1 -12.2,26 -2.5,8.9 -3,17.8 -1.4,26.6 1.5,8.9 5.2,17.5 11.1,25.9 5.8,8.5 14.3,16.4 25.3,23.9 20.3,13.8 41.1,18 62.4,12.7 21.2,-5.4 41.1,-21.7 59.6,-48.9 l 106.1,71.8 c -15.4,22.7 -32.6,41 -51.5,54.9 -18.8,13.9 -38.8,23.5 -59.9,28.8 -21,5.3 -43,6.4 -65.8,3.2 -22.8,-3.2 -45.7,-10.6 -68.6,-22.1 l -50.1,74 -58.7,-39.7 49.4,-73 c -20.7,-17 -37.3,-35.2 -50.1,-54.6 -12.7,-19.4 -21.5,-39.3 -26.2,-59.7 -4.7,-20.5 -5.1,-41 -1.2,-61.5 3.9,-20.5 12.4,-40.5 25.5,-59.8 15.1,-22.3 32,-38.9 50.6,-49.8 18.7,-10.9 39,-17.7 61.1,-20.3 22.1,-2.6 46.1,-1.9 71.9,2.2 25.8,4 53.6,10 83.2,17.8 17.2,4.7 32.3,7.8 45.4,9.3 13.1,1.6 24.6,1.5 34.8,-0.3 10.1,-1.8 18.9,-5.4 26.6,-10.8 7.6,-5.5 14.6,-13 21.1,-22.5 5.7,-8.5 9.5,-17.2 11.4,-26.4 1.9,-9.1 1.7,-18.3 -0.7,-27.5 -2.3,-9.2 -6.8,-18.3 -13.5,-27.1 -6.7,-8.8 -15.8,-17.1 -27.3,-24.9 -10,-6.8 -20.7,-12.2 -32.2,-16.1 -11.4,-3.9 -23.1,-5.2 -35.1,-3.9 -12,1.4 -23.9,5.9 -35.7,13.6 -11.8,7.7 -23.2,19.7 -34.1,35.8 l -106.1,-71.8 c 18.4,-27.3 38.7,-47.7 60.8,-61.3 22,-13.6 44.7,-21.8 68.1,-24.7 23.4,-2.9 46.9,-1.4 70.4,4.7 23.6,6 46.3,14.8 68,26.6 l 45.7,-67.5 58.3,39.5 -45.9,67.8 c 20.6,17 37.6,35.1 50.8,54.3 12.2,17.8 20.9,36 26,54.6 0.4,1.5 0.8,3 1.1,4.6 4.9,20.1 5.4,40.6 1.6,61.2 -3.8,20.6 -12.5,41 -26,61"
         style="fill:#ffa412;fill-opacity:1;fill-rule:nonzero;stroke:none"
         id="path334" /><path
         d="m 15186.6,5784.6 c -5,-0.1 -10,-0.2 -15,-0.1 -1.7,0 -3.4,0.1 -5.1,0.1 -3.9,0.2 -7.7,0.3 -11.6,0.6 -183.5,11.7 -327.2,165.8 -324.1,351.6 3,177.2 138.5,321.2 310.5,339 13.8,1.4 27.7,2 41.8,1.7 5.1,0 10.2,-0.2 15.2,-0.5 4.8,-0.3 9.7,-0.7 14.5,-1.2 14.8,-1.5 29.3,-3.9 43.4,-7.2 21.1,-4.9 41.4,-11.7 60.8,-20.3 60,-26.4 111.1,-69.5 147.5,-123.1 38.5,-57 60.6,-126 59.4,-200 -3.2,-186.3 -152.8,-335.8 -337.3,-340.6"
         style="fill:#ffb93e;fill-opacity:1;fill-rule:nonzero;stroke:none"
         id="path336" /><path
         d="m 15327.2,6389.4 c -43.6,25 -93.2,38.8 -144.9,39.6 -80.7,1.4 -157.1,-28.8 -215.1,-84.9 -58,-56.1 -90.7,-131.4 -92,-212.1 v 0 c -2.8,-166.6 130.5,-304.4 297,-307.2 166.6,-2.7 304.4,130.5 307.2,297.1 1.3,80.7 -28.8,157.1 -84.9,215.1 -20.2,20.8 -42.8,38.4 -67.3,52.4 z m -303.9,-532.1 c -95,54.5 -158.5,157.7 -156.5,274.8 v 0 c 1.4,82.9 35,160.4 94.6,218 59.6,57.7 138.1,88.7 221.1,87.3 82.9,-1.4 160.3,-35 218,-94.6 57.6,-59.6 88.6,-138.1 87.3,-221 -2.9,-171.2 -144.5,-308.2 -315.7,-305.4 -54.1,1 -104.8,15.7 -148.8,40.9"
         style="fill:#ffa412;fill-opacity:1;fill-rule:nonzero;stroke:none"
         id="path338" /><path
         d="m 15294.8,6024.8 c 0.2,1.8 0.4,3.6 0.6,5.4 1.3,13.5 0.2,25.7 -3.3,36.5 -4,12.2 -10.3,23.4 -19,33.4 -8.8,10 -19.6,19.2 -32.6,27.7 -12.9,8.5 -27.4,17.1 -43.5,25.7 -9.9,5.3 -18.1,10.2 -24.7,14.8 -6.6,4.6 -11.7,9.3 -15.4,14 -3.7,4.7 -6.1,9.6 -7.2,14.7 -1.1,5.1 -1.2,10.6 -0.4,16.6 0.8,6 2.4,11.4 4.9,16.4 2.4,4.9 5.7,9.1 9.9,12.4 4.2,3.3 9.3,5.6 15.2,7 6,1.5 12.9,1.6 20.7,0.6 14.5,-2 25.4,-8.4 32.7,-19.2 7.3,-10.8 9.6,-25.9 7,-45.3 l 75.5,-10.2 c 2.2,16.2 1.9,31.1 -1,44.7 -2.8,13.7 -7.9,25.8 -15.1,36.6 -7.3,10.7 -16.6,19.8 -28,27.5 -11.3,7.6 -24.4,13.4 -39.1,17.4 l 7.1,52.7 -41.8,5.6 -7,-51.9 c -15.9,0.7 -30.5,-0.8 -43.8,-4.3 -13.4,-3.6 -25.1,-8.9 -35.3,-16.1 -10.2,-7.2 -18.5,-16.1 -25,-26.8 -6.4,-10.7 -10.5,-22.9 -12.4,-36.6 -2.1,-15.9 -1.2,-29.9 2.7,-42.1 3.9,-12.3 10.3,-23.4 19.1,-33.3 8.7,-9.9 19.6,-19.1 32.7,-27.5 13,-8.5 27.6,-16.8 43.9,-25.1 9.5,-4.8 17.4,-9.4 23.8,-13.9 6.4,-4.5 11.5,-9.1 15.3,-13.9 3.8,-4.8 6.3,-9.9 7.5,-15.4 1.2,-5.4 1.3,-11.5 0.4,-18.3 -0.8,-6 -2.6,-11.4 -5.4,-16.2 -2.8,-4.8 -6.5,-8.8 -11.2,-12 -4.7,-3.1 -10.2,-5.3 -16.7,-6.6 -6.5,-1.3 -13.8,-1.3 -22,-0.2 -7.1,0.9 -14,2.8 -20.6,5.6 -6.7,2.8 -12.4,6.9 -17.1,12.2 -4.8,5.4 -8.3,12.1 -10.5,20.2 -2.2,8.1 -2.5,17.9 -0.9,29.4 l -75.5,10.3 c -2.6,-19.4 -1.8,-36.5 2.6,-51.3 4.4,-14.8 11.2,-27.4 20.4,-38 9.2,-10.5 20.2,-19.2 33.1,-25.8 12.8,-6.7 26.4,-11.8 40.6,-15.2 l -6.5,-48 41.6,-5.7 6.5,48.3 c 15.9,-0.7 30.6,0.6 44,3.9 12.5,3.1 23.6,7.7 33.2,13.9 0.8,0.5 1.6,1 2.3,1.6 10.2,7 18.5,15.8 25,26.5 6.5,10.6 10.8,23.1 12.7,37.3"
         style="fill:#ffa412;fill-opacity:1;fill-rule:nonzero;stroke:none"
         id="path340" /><path
         d="m 15345,4149.3 c -129.2,151.3 -296.4,251.1 -475.5,297.3 -168.8,43.6 -348.3,39.4 -516.5,-14.2 -54.3,-17.2 -107.2,-39.6 -158.4,-67.1 -34.4,-18.6 -67.9,-39.5 -100.4,-62.8 -10.6,-7.6 -21.1,-15.4 -31.4,-23.5 -10.7,-8.3 -21.2,-16.9 -31.6,-25.7 -28.9,-24.7 -56,-50.8 -81.1,-78 -20.6,-22.4 -39.8,-45.4 -57.9,-69.3 v -747 c 0,-238.8 194,-434.3 431.1,-434.3 h 1008.8 c 305.4,342.3 318.9,866 12.9,1224.6"
         style="fill:#ffb93e;fill-opacity:1;fill-rule:nonzero;stroke:none"
         id="path342" /><path
         d="m 15278.4,4078 c -144.8,169.7 -347,272.8 -569.3,290.4 -222.3,17.6 -438.2,-52.5 -607.8,-197.2 -88.8,-75.8 -159.5,-167.4 -209.1,-269.4 v -55 c 48.4,117.3 124.3,222.4 223.7,307.2 105.8,90.3 230.1,150.7 362.7,178 74.3,15.2 151.1,20.1 228.7,13.9 216.4,-17.1 413,-117.4 554,-282.5 288.6,-338.3 250.6,-846.8 -83,-1138.7 h 33.5 c 325.6,302.3 357.6,812.2 66.6,1153.3"
         style="fill:#ffa412;fill-opacity:1;fill-rule:nonzero;stroke:none"
         id="path344" /><path
         d="m 15102.7,3441.5 c -5.8,33 -19.5,65.6 -40.9,97.7 -2.7,4.1 -5.5,8.1 -8.4,12 -21.4,29.5 -45.3,52.1 -71.6,67.7 -29.7,17.7 -62.3,28.8 -97.7,33.4 -35.5,4.5 -73.8,3.9 -115,-2 -41.3,-5.8 -85.6,-14.3 -133.4,-25.6 -29.3,-7 -54.8,-11.7 -76.2,-14 -21.3,-2.4 -40.1,-2.2 -55.9,0.7 -15.8,2.8 -29.3,8.5 -40.6,16.8 -11.2,8.4 -21.3,19.3 -30.4,32.8 -9,13.5 -15.4,27.4 -19.3,41.7 -3.9,14.3 -4.4,28.5 -2,42.6 2.6,14.1 8.6,27.9 18,41.3 9.6,13.5 23.1,26.1 40.8,38 32.7,21.7 66,28.2 99.9,19.5 34,-8.8 65.5,-35.2 94.8,-78.9 l 170.4,113.7 c -24.4,36.4 -51.5,66 -81.6,88.5 -30,22.3 -61.8,37.9 -95.5,46.7 -33.7,8.6 -68.7,10.5 -105.2,5.7 -36.6,-4.8 -73.3,-16.3 -109.9,-34.5 l -79.3,118.9 -94.4,-63 78.2,-117.2 c -33.2,-26.9 -60.1,-55.8 -80.7,-86.6 -20.6,-31 -34.8,-62.7 -42.4,-95.4 -7.8,-32.6 -8.7,-65.4 -2.7,-98.2 6,-33 19.4,-65 40.1,-95.9 23.9,-35.9 50.7,-62.6 80.4,-80.3 29.6,-17.6 62.2,-28.7 97.5,-33 35.3,-4.4 73.7,-3.6 114.9,2.7 41.3,6.1 85.8,15.2 133.4,27.4 27.5,7.4 51.7,12.1 72.5,14.5 21,2.3 39.5,2 55.7,-1 16.1,-2.9 30.2,-8.7 42.3,-17.5 12.1,-8.9 23.4,-20.9 33.6,-36.2 9,-13.5 15,-27.6 17.9,-42.3 3,-14.7 2.5,-29.3 -1.3,-44 -3.8,-14.7 -11.1,-29.1 -21.9,-43.2 -10.8,-14.1 -25.5,-27.2 -43.9,-39.6 -16.2,-10.7 -33.4,-19.2 -51.6,-25.3 -18.4,-6.2 -37.1,-8.1 -56.3,-5.9 -19.1,2.4 -38,9.7 -56.9,22.3 -18.9,12.4 -36.9,31.6 -54.2,57.6 l -170.5,-113.7 c 29.3,-43.8 61.5,-76.7 96.5,-98.6 35.2,-22 71.4,-35.5 108.8,-40.4 37.3,-4.9 74.8,-2.7 112.6,6.7 37.8,9.4 74.1,23.3 109,41.8 l 72.3,-108.5 93.7,62.5 -72.6,109.1 c 33.1,26.9 60.4,55.7 81.7,86.3 19.8,28.3 33.8,57.2 42.2,87 0.6,2.4 1.3,4.8 1.9,7.3 8,32.2 9.1,64.8 3.2,97.9"
         style="fill:#ffa412;fill-opacity:1;fill-rule:nonzero;stroke:none"
         id="path346" /><path
         d="M 15201.9,6790.6 H 14048 v 1568 h 1153.9 v -1568"
         style="fill:#ffffff;fill-opacity:1;fill-rule:nonzero;stroke:none"
         id="path348" /><path
         d="m 16466.6,6790.6 h -1153.9 v 1568 h 1153.9 v -1568"
         style="fill:#ffffff;fill-opacity:1;fill-rule:nonzero;stroke:none"
         id="path350" /><path
         d="m 17734.6,6790.6 h -1153.9 v 1568 h 1153.9 v -1568"
         style="fill:#ffffff;fill-opacity:1;fill-rule:nonzero;stroke:none"
         id="path352" /><path
         d="m 14505.6,7874.4 c -37.8,0 -64.7,-3.1 -80.6,-9.3 -15.9,-6.2 -28.9,-21.9 -39,-47.1 -5.7,-12.6 -11.9,-22.1 -18.7,-28.5 -6.7,-6.4 -16.5,-9.6 -29.4,-9.6 -20.3,0 -33.2,6.1 -38.4,18.2 -5.3,12.2 -7.9,30.1 -7.9,53.7 0,21.3 1.1,52.4 3.4,93.4 2.3,40.9 5.4,65.2 9.3,72.7 7.1,12.9 16.2,20.8 27.3,23.8 11.1,2.9 26.4,4.4 45.9,4.4 h 586.7 c 24,0 40.6,-1.6 49.6,-4.8 9.1,-3.2 13.6,-10.5 13.6,-22 0,-9 -6.5,-28.1 -19.6,-57.5 l -149.1,-408 -122.6,-434.9 c -7.8,-32.5 -16.2,-55.9 -25.1,-70.2 -8.9,-14.3 -20.5,-23.3 -34.7,-27 -14.2,-3.6 -37.3,-5.5 -69.4,-5.5 h -29.5 -101.4 c -43.2,4.4 -64.9,18 -64.9,40.9 0,12.6 6.2,30.9 18.6,55 l 327.7,634.2 73.2,128.1 h -325"
         style="fill:#2b478b;fill-opacity:1;fill-rule:nonzero;stroke:none"
         id="path354" /><path
         d="m 15788.9,7874.4 c -37.8,0 -64.6,-3.1 -80.6,-9.3 -15.9,-6.2 -28.9,-21.9 -39,-47.1 -5.7,-12.6 -11.9,-22.1 -18.7,-28.5 -6.7,-6.4 -16.5,-9.6 -29.3,-9.6 -20.4,0 -33.3,6.1 -38.5,18.2 -5.3,12.2 -7.9,30.1 -7.9,53.7 0,21.3 1.1,52.4 3.4,93.4 2.3,40.9 5.4,65.2 9.3,72.7 7.1,12.9 16.2,20.8 27.3,23.8 11.1,2.9 26.4,4.4 45.9,4.4 h 586.7 c 24,0 40.6,-1.6 49.6,-4.8 9.1,-3.2 13.6,-10.5 13.6,-22 0,-9 -6.5,-28.1 -19.6,-57.5 l -149.1,-408 -122.6,-434.9 c -7.8,-32.5 -16.1,-55.9 -25.1,-70.2 -8.9,-14.3 -20.5,-23.3 -34.7,-27 -14.2,-3.6 -37.3,-5.5 -69.4,-5.5 h -29.5 -101.3 c -43.3,4.4 -65,18 -65,40.9 0,12.6 6.2,30.9 18.6,55 l 327.7,634.2 73.2,128.1 h -325"
         style="fill:#2b478b;fill-opacity:1;fill-rule:nonzero;stroke:none"
         id="path356" /><path
         d="m 17034.1,7874.4 c -37.8,0 -64.6,-3.1 -80.5,-9.3 -16,-6.2 -29,-21.9 -39,-47.1 -5.8,-12.6 -12,-22.1 -18.8,-28.5 -6.7,-6.4 -16.5,-9.6 -29.3,-9.6 -20.4,0 -33.2,6.1 -38.5,18.2 -5.3,12.2 -7.9,30.1 -7.9,53.7 0,21.3 1.2,52.4 3.4,93.4 2.3,40.9 5.4,65.2 9.3,72.7 7.1,12.9 16.2,20.8 27.3,23.8 11.1,2.9 26.4,4.4 45.9,4.4 h 586.7 c 24.1,0 40.6,-1.6 49.7,-4.8 9,-3.2 13.5,-10.5 13.5,-22 0,-9 -6.5,-28.1 -19.6,-57.5 l -149,-408 -122.7,-434.9 c -7.8,-32.5 -16.1,-55.9 -25,-70.2 -9,-14.3 -20.6,-23.3 -34.7,-27 -14.3,-3.6 -37.4,-5.5 -69.4,-5.5 h -29.6 -101.3 c -43.3,4.4 -65,18 -65,40.9 0,12.6 6.2,30.9 18.6,55 l 327.7,634.2 73.2,128.1 h -325"
         style="fill:#2b478b;fill-opacity:1;fill-rule:nonzero;stroke:none"
         id="path358" /><path
         d="m 26292.2,2936.5 c 0,0 18.3,-212.4 -26.6,-234.6 l -574.6,1.2 c 0,0 0,66.3 92.3,81.1 92.3,14.7 254.4,68.8 281.9,189.1 27.4,120.4 227,-36.8 227,-36.8"
         style="fill:#233862;fill-opacity:1;fill-rule:nonzero;stroke:none"
         id="path360" /><path
         d="m 27941.1,3018.7 c 0,0 17.3,-294.6 -27.6,-316.8 l -574.7,1.2 c 0,0 0,66.3 92.3,81.1 92.3,14.7 254.4,68.8 281.9,189.1 27.4,120.4 228.1,45.4 228.1,45.4"
         style="fill:#233862;fill-opacity:1;fill-rule:nonzero;stroke:none"
         id="path362" /><path
         d="m 27960.6,2982.4 c 0,0 -114,-58.7 -162.8,-69.4 -54.3,-12 -156.2,-4.4 -156.2,-4.4 -195.5,524 -801.6,2654 -801.6,2654 -26.4,-589 -132.7,-1176.4 -243.1,-1648.6 -3,-12.6 -6,-25.2 -8.9,-37.6 v -0.2 c -2.7,-11.4 -5.4,-22.6 -8.1,-33.8 -0.1,-0.5 -0.2,-0.9 -0.3,-1.5 -134.1,-557.2 -268.5,-936.6 -268.5,-936.6 0,0 -34.7,-44 -131.4,-23.9 -110.7,23 -147.7,71.7 -147.7,71.7 71.7,2269.5 111.7,3549.3 111.7,3549.3 0,0 959.4,518.3 1220.1,75.3 260.6,-443.1 596.8,-3594.3 596.8,-3594.3"
         style="fill:#2a4e96;fill-opacity:1;fill-rule:nonzero;stroke:none"
         id="path364" /><path
         d="m 27574.1,6270.6 c -124.4,444.7 -144.9,866.9 -143.9,1216.5 1.3,497.5 46,847.9 -103.7,907 0,0 -462.7,134.5 -781.1,193.8 -50.7,27.9 -107,57.1 -149.7,74.5 -100.6,40.8 -492.5,610.6 -559,747 -66.4,136.4 -176.4,730.8 -176.4,730.8 l -152.8,-48.7 c 0,0 -45.9,-667.2 -23.9,-841.1 22,-173.9 507.4,-921.6 547.6,-987 v 0 c 172.8,-631.6 0,-1659.4 79,-1888.5 40.6,-117.9 793.9,-333.9 1206.2,-306.7 20.6,1.4 40.3,3.3 59,5.9 0.1,0 0.1,0.1 0.2,0.1 97.5,13.6 168.5,44.7 194.5,99.4 12.7,26.5 14.7,58.7 4,97"
         style="fill:#9400d3;fill-opacity:1;fill-rule:nonzero;stroke:none"
         id="path366" /><path
         d="m 25660.3,10140.2 c 0,0 86.3,250.8 23.1,258.1 -63.1,7.2 -221.5,6.5 -241,-35.9 -19.6,-42.3 65.1,-270.9 65.1,-270.9 l 152.8,48.7"
         style="fill:#ffb27d;fill-opacity:1;fill-rule:nonzero;stroke:none"
         id="path368" /><path
         d="m 26683.4,8656.1 -7.4,-38.6 c 0,0 -34.4,-118.5 110.6,-165.4 144.9,-47 267.1,-68.8 281.5,25 0.9,74.7 -1,191.2 9.8,251 4,22.3 9.9,46.3 19.3,72 l -286.2,61.8 -87.5,2.9 -40.1,-208.7"
         style="fill:#ffb27d;fill-opacity:1;fill-rule:nonzero;stroke:none"
         id="path370" /><path
         d="m 26723.5,8864.8 -26.7,-140.6 c 272.2,-72.1 391,50.2 400.4,75.9 l -286.2,61.8 -87.5,2.9"
         style="fill:#e2915a;fill-opacity:1;fill-rule:nonzero;stroke:none"
         id="path372" /><path
         d="m 27139.4,8857.6 c -84.4,-171.5 -316.3,-100.1 -414,-60.3 -27.5,11.1 -44.4,19.7 -44.4,19.7 -29.6,17.6 -33.3,73 -23.1,141.4 20.3,135.4 94.9,321.5 130.8,364.4 54,64.6 139,126.9 358,3.3 219.1,-123.7 101,-248.7 -7.3,-468.5"
         style="fill:#ffb27d;fill-opacity:1;fill-rule:nonzero;stroke:none"
         id="path374" /><path
         d="m 26832.2,8919.9 c 0,0 -22.9,-41.3 -97.9,-5.7 -15.5,7.4 -47.5,35.6 -34.4,59.5 0,0 83.8,1.3 132.3,-53.8"
         style="fill:#ffffff;fill-opacity:1;fill-rule:nonzero;stroke:none"
         id="path376" /><path
         d="m 26736,8340.9 c 0,0 -130.6,-867.1 -1108,-1469.2 l -91.2,-265 h 352.8 c 0,0 875.4,734.1 934.1,1709.3 l -87.7,24.9"
         style="fill:#2a4e96;fill-opacity:1;fill-rule:nonzero;stroke:none"
         id="path378" /><path
         d="m 26736,8340.9 v 131.4 l 161.1,-45.6 -73.4,-110.7 -87.7,24.9"
         style="fill:#233862;fill-opacity:1;fill-rule:nonzero;stroke:none"
         id="path380" /><path
         d="m 26683.4,8656.1 -94.3,-80.6 c 0,0 -26.1,-112.5 37.5,-234.6 l 190,108.6 c 0,0 -112.2,54.2 -133.2,206.6"
         style="fill:#ef7e29;fill-opacity:1;fill-rule:nonzero;stroke:none"
         id="path382" /><path
         d="m 26816.6,8449.5 c 0,0 18.8,-102 68.3,-152.5 0,0 214.1,37.5 273.5,140.1 l -89.6,140 c 0,0 -21.4,-95.6 -252.2,-127.6"
         style="fill:#ef7e29;fill-opacity:1;fill-rule:nonzero;stroke:none"
         id="path384" /><path
         d="m 28099.2,6202.1 c 0,0 0.4,-194.1 -17.4,-232.7 -17.9,-38.6 -98,-164.3 -134.9,-191.2 -36.9,-26.9 7.9,155.4 -3.7,188.8 -11.6,33.3 -25.8,-65.8 -42.9,-69.9 -17,-4.1 -21.7,83.3 -25.6,114.9 -4,31.6 72.8,118.6 95.6,189.1 22.9,70.5 128.9,1 128.9,1"
         style="fill:#ffb27d;fill-opacity:1;fill-rule:nonzero;stroke:none"
         id="path386" /><path
         d="m 27323.4,8394.2 c 0,0 188.3,-51.3 315.8,-332 133.8,-294.4 491.8,-948.2 505.1,-1038.4 13.3,-90.2 -23.7,-933 -23.7,-933 0,0 -156.7,-6.1 -205.1,68.3 0,0 -54.5,739.8 -78.6,780 -24.2,40.2 -640.7,775.5 -588.8,962 52,186.6 75.3,493.1 75.3,493.1"
         style="fill:#9400d3;fill-opacity:1;fill-rule:nonzero;stroke:none"
         id="path388" /><path
         d="m 27570.1,6173.6 c -46.7,-40 -109.7,-74.9 -194.5,-99.4 -0.1,0 -0.1,-0.1 -0.2,-0.1 -20.9,-6 -40.5,-7.8 -59,-5.9 -344.5,35.5 -291.5,1374.1 -124.6,1473 175.9,104.2 238.4,-54.1 238.4,-54.1 -1,-349.6 19.5,-771.8 143.9,-1216.5 10.7,-38.3 8.7,-70.5 -4,-97"
         style="fill:#9400d3;fill-opacity:1;fill-rule:nonzero;stroke:none"
         id="path390" /><path
         d="m 26596.9,3914 c 105.4,499 -8.2,1836.1 42.5,1861.5 52.1,26 200.6,-212.9 200.6,-212.9 -26.4,-589 -132.7,-1176.4 -243.1,-1648.6"
         style="fill:#233862;fill-opacity:1;fill-rule:nonzero;stroke:none"
         id="path392" /><path
         d="m 27293.2,9386.1 c 0.8,0.3 1.5,0.7 2,1.2 5,5.1 13.9,1.1 13.9,1.1 -11.6,9.7 -33.3,11.7 -33.3,11.7 0.6,0.2 0,1.4 -1.5,3.3 2.4,18.8 -12.2,36.9 -12.2,36.9 3.7,-10.7 3.8,-20.4 3,-27.2 -34.6,32.8 -146.3,115.3 -257.5,100 -137,-18.8 -242.7,2.3 -242.7,2.3 -2.3,-8 -66.1,-158 3.7,-208.2 -12.6,-34.6 204.5,-66.2 248.6,-128.5 44.2,-62.2 -31.6,-123.2 26.1,-168.7 0.3,-0.2 0.6,-0.5 1,-0.8 14.8,-11.6 35.9,-9.2 49,4.4 15.2,15.7 38.3,32.9 55,17.6 15.4,-14.2 16.7,-77.8 -12.6,-94.6 -18.7,-3.6 -26.1,-26.7 -21.6,-41.8 14.8,-50.6 -16.9,-94.7 -16.9,-94.7 0,0 130.8,125.8 209.8,177 65.6,42.6 119.9,290.9 -13.8,409"
         style="fill:#233862;fill-opacity:1;fill-rule:nonzero;stroke:none"
         id="path394" /><path
         d="m 26840.3,11570.8 c 0,-146.9 -24.1,-288.1 -68.5,-420 -53,-157.4 -134.9,-301.5 -239.6,-425.8 -191.9,-228.7 -460.4,-390.8 -765.9,-447.4 -78.3,-14.7 -158.9,-22.2 -241.3,-22.2 -85.1,0 -168.4,8 -248.9,23.6 -300,57.4 -563.9,216.6 -753.9,440.6 -105.3,123.7 -188,267.3 -241.7,424.3 -46,133.9 -70.9,277.4 -70.9,426.9 0,160 28.6,313.4 81,455.2 56.8,154.1 141.5,294.5 248.3,415.2 190,215.2 449.2,367.7 742.9,422.4 78.8,14.9 160,22.5 243.2,22.5 81.4,0 161.3,-7.4 238.7,-21.7 293.7,-53.7 553.2,-205 743.6,-419.1 107.3,-120.4 192.9,-260.5 250.2,-414.4 53.6,-143.2 82.8,-298.3 82.8,-460.1"
         style="fill:#f99746;fill-opacity:1;fill-rule:nonzero;stroke:none"
         id="path396" /><path
         d="m 24550.9,11570.8 c 0,537.9 436.1,974 974.1,974 537.9,0 974,-436.1 974,-974 0,-538 -436.1,-974.1 -974,-974.1 -538,0 -974.1,436.1 -974.1,974.1"
         style="fill:#ef7e29;fill-opacity:1;fill-rule:nonzero;stroke:none"
         id="path398" /><path
         d="m 24654.5,11570.8 c 0,480.7 389.7,870.4 870.5,870.4 480.7,0 870.5,-389.7 870.5,-870.4 0,-480.8 -389.8,-870.5 -870.5,-870.5 -480.8,0 -870.5,389.7 -870.5,870.5"
         style="fill:#f99746;fill-opacity:1;fill-rule:nonzero;stroke:none"
         id="path400" /><path
         d="m 25763.7,12864.4 -21.4,-218.9 h -434.6 l -25.9,218.1 c 78.8,14.9 160,22.5 243.2,22.5 81.4,0 161.3,-7.4 238.7,-21.7"
         style="fill:#ffffff;fill-opacity:1;fill-rule:nonzero;stroke:none"
         id="path402" /><path
         d="m 25766.3,10277.6 c -78.3,-14.7 -158.9,-22.2 -241.3,-22.2 -85.1,0 -168.4,8 -248.9,23.6 l 25,255.8 h 434.5 l 30.7,-257.2"
         style="fill:#ffffff;fill-opacity:1;fill-rule:nonzero;stroke:none"
         id="path404" /><path
         d="m 26757.5,12030.9 -210.5,-97.2 -219.8,374.8 180.1,136.8 c 107.3,-120.4 192.9,-260.5 250.2,-414.4"
         style="fill:#ffffff;fill-opacity:1;fill-rule:nonzero;stroke:none"
         id="path406" /><path
         d="m 24722.8,10871.7 -200.6,-152.1 c -105.3,123.7 -188,267.3 -241.7,424.3 l 222.4,102.7 219.9,-374.9"
         style="fill:#ffffff;fill-opacity:1;fill-rule:nonzero;stroke:none"
         id="path408" /><path
         d="m 26771.8,11150.8 c -53,-157.4 -134.9,-301.5 -239.6,-425.8 l -205.8,147.4 217.7,376.1 227.7,-97.7"
         style="fill:#ffffff;fill-opacity:1;fill-rule:nonzero;stroke:none"
         id="path410" /><path
         d="m 24720.2,12311.2 -217.6,-376.2 -212,91 c 56.8,154.1 141.5,294.5 248.3,415.2 l 181.3,-130"
         style="fill:#ffffff;fill-opacity:1;fill-rule:nonzero;stroke:none"
         id="path412" /><path
         d="m 25651.8,10137.1 c 0,0 67.3,33.2 88.8,71.9 21.5,38.7 73.7,100.5 55.5,113.1 -18.1,12.7 -126.6,-67 -126.6,-67 l -17.7,-118"
         style="fill:#ffb27d;fill-opacity:1;fill-rule:nonzero;stroke:none"
         id="path414" /><path
         d="M 30697.3,2624.7 H 1717.42 c -17.99,0 -32.7,14.7 -32.7,32.7 v 10.7 c 0,18 14.71,32.7 32.7,32.7 H 30697.3 c 18,0 32.7,-14.7 32.7,-32.7 v -10.7 c 0,-18 -14.7,-32.7 -32.7,-32.7"
         style="fill:#2e3552;fill-opacity:1;fill-rule:nonzero;stroke:none"
         id="path416" /><path
         d="m 21499,14679.9 c 0,0 24,38.8 41.7,43.2 17.7,4.5 44.6,69.5 60.5,94.5 0,0 -9.7,19.1 -33.5,-0.7 -14.5,-12 -55.3,-34.6 -55.3,-34.6 l -13.4,-102.4"
         style="fill:#ffb27d;fill-opacity:1;fill-rule:nonzero;stroke:none"
         id="path418" /></g></g></svg>
